<svg version="1.1" xmlns="http://www.w3.org/2000/svg" viewBox="0 0 271.453 259.445" preserveAspectRatio="xMidYMid meet">
  <g fill="#000000">
    <path d="M104.743,206.576c0.961-2.418,1.441-5.002,1.441-7.756c0-2.547-0.375-4.963-1.129-7.25s-1.859-4.262-3.313-5.926 c-1.455-1.662-3.209-2.988-5.26-3.975c-2.055-0.986-4.404-1.48-7.055-1.48c-2.494,0-4.627,0.389-6.393,1.17 c-1.768,0.777-2.963,1.48-3.586,2.104v-17.928H70.25v51.992c7.35,1.248,11.637,1.248,14.795,1.248c3.17,0,6.512-0.533,9.059-1.598 c2.547-1.066,4.717-2.498,6.51-4.287C102.405,211.097,103.78,208.992,104.743,206.576z M96.091,203.458 c-0.494,1.428-1.234,2.688-2.221,3.779c-0.99,1.092-2.184,1.963-3.586,2.611c-1.404,0.648-3.039,0.975-4.912,0.975 c-1.662,0-2.883-0.064-3.664-0.195c-0.779-0.131-1.531-0.324-2.26-0.586v-13.797c0-2.492,0.715-4.455,2.145-5.885 c1.428-1.428,3.547-2.143,6.352-2.143c1.561,0,2.898,0.299,4.014,0.896c1.119,0.596,2.041,1.402,2.77,2.416 c0.727,1.014,1.258,2.17,1.598,3.469c0.338,1.299,0.506,2.65,0.506,4.055C96.832,200.56,96.585,202.029,96.091,203.458z"></path>
    <path d="M193.027,181.359c-1.768,0.777-2.963,1.48-3.586,2.104v-17.928h-9.199v51.992c7.35,1.248,11.635,1.248,14.793,1.248 c3.172,0,6.514-0.533,9.061-1.598c2.547-1.066,4.717-2.498,6.51-4.287c1.793-1.793,3.168-3.898,4.131-6.314 c0.961-2.418,1.441-5.002,1.441-7.756c0-2.547-0.377-4.963-1.129-7.25c-0.754-2.287-1.859-4.262-3.314-5.926 c-1.455-1.662-3.209-2.988-5.262-3.975s-4.404-1.48-7.055-1.48C196.925,180.189,194.792,180.578,193.027,181.359z M204.718,191.531 c0.729,1.014,1.26,2.17,1.6,3.469c0.338,1.299,0.506,2.65,0.506,4.055c0,1.506-0.246,2.975-0.742,4.404 c-0.494,1.428-1.232,2.688-2.221,3.779s-2.184,1.963-3.586,2.611s-3.039,0.975-4.91,0.975c-1.664,0-2.883-0.064-3.664-0.195 c-0.779-0.131-1.533-0.324-2.26-0.586v-13.797c0-2.492,0.713-4.455,2.145-5.885c1.428-1.428,3.547-2.143,6.352-2.143 c1.561,0,2.898,0.299,4.014,0.896C203.07,189.71,203.992,190.517,204.718,191.531z"></path>
    <path d="M63.783,198.351v-32.816h-9.824v31.102c0,1.977-0.193,3.756-0.584,5.34c-0.391,1.586-1.025,2.936-1.91,4.053 c-0.883,1.119-2.053,1.977-3.508,2.572c-1.455,0.6-3.248,0.896-5.377,0.896c-2.133,0-3.926-0.297-5.381-0.896 c-1.455-0.596-2.623-1.453-3.506-2.572c-0.885-1.117-1.521-2.467-1.912-4.053c-0.389-1.584-0.584-3.363-0.584-5.34v-31.102h-9.82 v32.816c0,2.912,0.467,5.613,1.402,8.107s2.311,4.664,4.131,6.508c1.818,1.846,4.039,3.301,6.664,4.365s5.625,1.6,9.006,1.6 c3.375,0,6.377-0.535,9.002-1.6c2.623-1.064,4.846-2.52,6.664-4.365c1.818-1.844,3.197-4.014,4.131-6.508 C63.314,203.964,63.783,201.263,63.783,198.351z"></path>
    <rect x="111.174" y="165.535" width="9.197" height="9.197"></rect>
    <rect x="111.174" y="180.968" width="9.197" height="36.559"></rect>
    <rect x="126.84" y="165.535" width="9.199" height="51.992"></rect>
    <path d="M169.566,183.423c-1.352-1.168-2.977-2.076-4.873-2.729c-1.896-0.648-4.014-0.975-6.354-0.975 c-2.182,0-4.092,0.145-5.73,0.43c-1.635,0.285-3.076,0.65-4.324,1.09c-1.248,0.443-2.34,0.936-3.275,1.482 c-0.936,0.545-1.768,1.078-2.492,1.598l4.207,6.236c1.197-0.779,2.574-1.508,4.133-2.184c1.559-0.674,3.637-1.012,6.236-1.012 c2.338,0,4.234,0.52,5.691,1.559c1.453,1.039,2.18,2.469,2.18,4.287v0.857c-0.986-0.051-1.947-0.104-2.883-0.156 c-0.832-0.051-1.689-0.09-2.572-0.117c-0.885-0.025-1.689-0.037-2.416-0.037c-2.393,0-4.574,0.285-6.549,0.857 c-1.977,0.57-3.662,1.416-5.066,2.531c-1.404,1.119-2.494,2.496-3.273,4.133c-0.781,1.637-1.17,3.494-1.17,5.572 c0,2.027,0.377,3.795,1.131,5.301c0.754,1.508,1.74,2.742,2.963,3.701c1.219,0.965,2.57,1.678,4.053,2.145 c1.48,0.469,2.973,0.703,4.482,0.703c2.494,0,4.756-0.469,6.781-1.402c2.027-0.938,3.533-2.002,4.52-3.199l0.236,3.432h8.572 v-24.555c0-1.922-0.361-3.703-1.09-5.34S170.916,184.593,169.566,183.423z M164.964,204.587c0,0.936-0.246,1.818-0.738,2.65 c-0.494,0.832-1.131,1.559-1.912,2.182c-0.777,0.623-1.674,1.119-2.688,1.48c-1.014,0.365-2.064,0.547-3.158,0.547 c-2.182,0-3.832-0.439-4.949-1.324c-1.119-0.883-1.676-2.105-1.676-3.664c0-1.508,0.598-2.846,1.793-4.016 c1.195-1.168,3.275-1.754,6.236-1.754c0.572,0,1.258,0.014,2.064,0.039c0.807,0.027,1.572,0.066,2.301,0.117 c0.883,0.053,1.793,0.105,2.727,0.156V204.587z"></path>
    <path d="M248.804,212.031c0.832-1.428,1.248-3.025,1.248-4.793c0-1.766-0.287-3.285-0.857-4.561 c-0.572-1.273-1.391-2.377-2.457-3.312c-1.064-0.936-2.338-1.715-3.818-2.34c-1.482-0.621-3.156-1.143-5.029-1.559 c-3.012-0.727-5.234-1.414-6.664-2.064s-2.145-1.547-2.145-2.689c0-0.936,0.43-1.727,1.287-2.379 c0.857-0.648,2.379-0.973,4.561-0.973c2.184,0,4.08,0.299,5.691,0.896c1.609,0.596,2.908,1.26,3.896,1.986l4.756-6.469 c-1.82-1.352-3.859-2.365-6.121-3.041c-2.26-0.674-5-1.014-8.223-1.014c-1.818,0-3.625,0.26-5.418,0.781 c-1.793,0.52-3.402,1.258-4.832,2.221c-1.432,0.963-2.586,2.158-3.469,3.586c-0.885,1.43-1.324,3.053-1.324,4.871 c0,1.768,0.377,3.287,1.129,4.561c0.754,1.273,1.715,2.365,2.885,3.273c1.168,0.91,2.428,1.625,3.779,2.145s2.65,0.934,3.898,1.246 c2.027,0.469,3.637,0.91,4.832,1.326s2.131,0.832,2.807,1.246c0.676,0.418,1.117,0.846,1.324,1.287 c0.209,0.441,0.312,0.924,0.312,1.441c0,1.197-0.598,2.055-1.793,2.572c-1.195,0.521-2.779,0.781-4.754,0.781 c-2.236,0-4.223-0.377-5.963-1.133c-1.742-0.752-3.184-1.701-4.326-2.844l-5.537,6.002c1.664,1.871,3.873,3.287,6.627,4.248 c2.756,0.961,5.848,1.443,9.275,1.443c2.131,0,4.145-0.273,6.043-0.82c1.895-0.545,3.559-1.311,4.988-2.299 S247.972,213.46,248.804,212.031z"></path>
    <path d="M135.715,129.016c35.487,0,64.256-28.77,64.256-64.257c0-35.488-28.769-64.258-64.256-64.258 c-35.489,0-64.258,28.77-64.258,64.258C71.458,100.247,100.226,129.016,135.715,129.016z M168.018,46.445h7.023v36.518h-7.023 V46.445z M153.975,46.445h7.021v36.518h-7.021V46.445z M139.927,46.445h7.023v36.518h-7.023V46.445z M114.647,46.499 c10.068,0,18.258,8.191,18.258,18.26c0,10.068-8.189,18.258-18.258,18.258s-18.258-8.19-18.258-18.258 C96.389,54.69,104.579,46.499,114.647,46.499z"></path>
    <path d="M114.647,76.089c6.248,0,11.333-5.083,11.333-11.331c0-6.249-5.085-11.333-11.333-11.333 c-6.25,0-11.332,5.084-11.332,11.333C103.315,71.006,108.397,76.089,114.647,76.089z"></path>
  </g>
</svg>
