<?xml version="1.0" encoding="utf-8" ?>
<svg version="1.1" xmlns="http://www.w3.org/2000/svg" viewBox="0 0 239 417.333" preserveAspectRatio='xMidYMid meet'>
  <g>
    <rect x="3.833" y="363.165" fill="#A0D468" stroke="#8CC152" stroke-miterlimit="10" width="150" height="50" />
    <text transform="matrix(1 0 0 1 54.4849 395.165)" fill="#FFFFFF" font-family="'Lato'" font-size="24">View</text>
  </g>
  <g>
    <rect x="3.833" y="273.165" fill="#48CFAD" stroke="#37BC9B" stroke-miterlimit="10" width="150" height="50" />
    <text transform="matrix(1 0 0 1 52.4209 305.165)" fill="#FFFFFF" font-family="'Lato'" font-size="24">Store</text>
  </g>
  <g>
    <rect x="3.833" y="183.165" fill="#656D78" stroke="#434A54" stroke-miterlimit="10" width="150" height="50" />
    <text transform="matrix(1 0 0 1 24.7256 215.665)" fill="#FFFFFF" font-family="'Lato'" font-size="24">Dispatcher</text>
  </g>
  <g>
    <rect x="3.833" y="93.165" fill="#5D9CEC" stroke="#4A89DC" stroke-miterlimit="10" width="150" height="50" />
    <text transform="matrix(1 0 0 1 46.085 125.165)" fill="#FFFFFF" font-family="'Lato'" font-size="24">Action</text>
  </g>
  <g>
    <line fill="#AC92EC" x1="78.333" y1="143.665" x2="78.333" y2="182.665" />
    <g>
      <line fill="none" stroke="#000000" stroke-miterlimit="10" x1="78.833" y1="143.665" x2="78.833" y2="176.665" />
      <g>
        <path d="M78.833,182.665c-1.054-2.84-2.852-6.363-4.756-8.547l4.756,1.72l4.755-1.72
        C81.683,176.302,79.885,179.825,78.833,182.665z" />
      </g>
    </g>
  </g>
  <g>
    <line fill="#AC92EC" x1="78.333" y1="233.665" x2="78.333" y2="272.665" />
    <g>
      <line fill="none" stroke="#000000" stroke-miterlimit="10" x1="78.833" y1="233.665" x2="78.833" y2="266.665" />
      <g>
        <path d="M78.833,272.665c-1.054-2.84-2.852-6.363-4.756-8.547l4.756,1.72l4.755-1.72
        C81.683,266.302,79.885,269.825,78.833,272.665z" />
      </g>
    </g>
  </g>
  <g>
    <line fill="#AC92EC" x1="78.333" y1="323.665" x2="78.333" y2="362.665" />
    <g>
      <line fill="none" stroke="#000000" stroke-miterlimit="10" x1="78.833" y1="323.665" x2="78.833" y2="356.665" />
      <g>
        <path d="M78.833,362.665c-1.054-2.84-2.852-6.363-4.756-8.547l4.756,1.72l4.755-1.72
        C81.683,356.302,79.885,359.825,78.833,362.665z" />
      </g>
    </g>
  </g>
  <g>
    <g>
      <polyline fill="none" stroke="#000000" stroke-miterlimit="10" points="154.333,388.165 235.833,388.165 235.833,118.165
      160.333,118.165     " />
      <g>
        <path d="M154.333,118.165c2.84-1.054,6.363-2.852,8.547-4.756l-1.72,4.756l1.72,4.755
        C160.696,121.016,157.172,119.218,154.333,118.165z" />
      </g>
    </g>
  </g>
</svg>
