<?xml version="1.0" standalone="yes"?>

<svg version="1.1" viewBox="0.0 0.0 960.0 720.0" fill="none" stroke="none" stroke-linecap="square" stroke-miterlimit="10" xmlns="http://www.w3.org/2000/svg" xmlns:xlink="http://www.w3.org/1999/xlink"><clipPath id="p.0"><path d="m0 0l960.0 0l0 720.0l-960.0 0l0 -720.0z" clip-rule="nonzero"></path></clipPath><g clip-path="url(#p.0)"><path fill="#000000" fill-opacity="0.0" d="m0 0l960.0 0l0 720.0l-960.0 0z" fill-rule="nonzero"></path><path fill="#cfe2f3" d="m369.65616 73.19292l0 0c0 -6.320114 5.123474 -11.443573 11.443573 -11.443573l189.7113 0c3.0350342 0 5.9457397 1.205658 8.091797 3.3517456c2.1461182 2.1460876 3.3517456 5.056801 3.3517456 8.091827l0 45.774277c0 6.3201065 -5.123474 11.443573 -11.4435425 11.443573l-189.7113 0c-6.320099 0 -11.443573 -5.1234665 -11.443573 -11.443573z" fill-rule="nonzero"></path><path stroke="#9fc5e8" stroke-width="2.0" stroke-linejoin="round" stroke-linecap="butt" d="m369.65616 73.19292l0 0c0 -6.320114 5.123474 -11.443573 11.443573 -11.443573l189.7113 0c3.0350342 0 5.9457397 1.205658 8.091797 3.3517456c2.1461182 2.1460876 3.3517456 5.056801 3.3517456 8.091827l0 45.774277c0 6.3201065 -5.123474 11.443573 -11.4435425 11.443573l-189.7113 0c-6.320099 0 -11.443573 -5.1234665 -11.443573 -11.443573z" fill-rule="nonzero"></path><path fill="#000000" d="m428.01007 101.07317q0.203125 0 0.359375 0.15625l0.90625 0.984375q-1.0625 1.234375 -2.5625 1.921875q-1.5 0.671875 -3.625 0.671875q-1.859375 0 -3.375 -0.640625q-1.515625 -0.640625 -2.59375 -1.796875q-1.0625 -1.15625 -1.65625 -2.765625q-0.578125 -1.625 -0.578125 -3.578125q0 -1.9375 0.625 -3.5625q0.640625 -1.625 1.78125 -2.78125q1.140625 -1.171875 2.71875 -1.8125q1.59375 -0.640625 3.515625 -0.640625q1.890625 0 3.265625 0.59375q1.375 0.578125 2.453125 1.59375l-0.765625 1.0625q-0.078125 0.125 -0.1875 0.203125q-0.109375 0.078125 -0.3125 0.078125q-0.15625 0 -0.328125 -0.109375q-0.171875 -0.125 -0.421875 -0.28125q-0.234375 -0.171875 -0.5625 -0.359375q-0.3125 -0.203125 -0.765625 -0.359375q-0.4375 -0.171875 -1.03125 -0.28125q-0.59375 -0.125 -1.359375 -0.125q-1.375 0 -2.53125 0.484375q-1.140625 0.46875 -1.96875 1.34375q-0.828125 0.875 -1.296875 2.140625q-0.453125 1.25 -0.453125 2.8125q0 1.609375 0.453125 2.875q0.46875 1.25 1.265625 2.125q0.796875 0.875 1.890625 1.328125q1.09375 0.453125 2.359375 0.453125q0.765625 0 1.375 -0.078125q0.609375 -0.09375 1.125 -0.28125q0.53125 -0.203125 0.984375 -0.5q0.453125 -0.296875 0.90625 -0.703125q0.203125 -0.171875 0.390625 -0.171875zm8.908844 -8.796875q1.328125 0 2.40625 0.453125q1.078125 0.4375 1.828125 1.25q0.75 0.8125 1.140625 1.96875q0.40625 1.15625 0.40625 2.59375q0 1.4375 -0.40625 2.59375q-0.390625 1.140625 -1.140625 1.96875q-0.75 0.8125 -1.828125 1.25q-1.078125 0.4375 -2.40625 0.4375q-1.328125 0 -2.40625 -0.4375q-1.078125 -0.4375 -1.828125 -1.25q-0.75 -0.828125 -1.171875 -1.96875q-0.40625 -1.15625 -0.40625 -2.59375q0 -1.4375 0.40625 -2.59375q0.421875 -1.15625 1.171875 -1.96875q0.75 -0.8125 1.828125 -1.25q1.078125 -0.453125 2.40625 -0.453125zm0 10.84375q1.796875 0 2.6875 -1.203125q0.890625 -1.203125 0.890625 -3.375q0 -2.171875 -0.890625 -3.375q-0.890625 -1.21875 -2.6875 -1.21875q-0.90625 0 -1.578125 0.3125q-0.671875 0.3125 -1.125 0.90625q-0.453125 0.578125 -0.671875 1.4375q-0.21875 0.859375 -0.21875 1.9375q0 1.09375 0.21875 1.953125q0.21875 0.84375 0.671875 1.421875q0.453125 0.578125 1.125 0.890625q0.671875 0.3125 1.578125 0.3125zm8.422241 1.5l0 -12.15625l1.28125 0q0.453125 0 0.5625 0.4375l0.15625 1.25q0.671875 -0.828125 1.5 -1.34375q0.84375 -0.53125 1.953125 -0.53125q1.234375 0 1.984375 0.6875q0.765625 0.671875 1.109375 1.84375q0.25 -0.65625 0.65625 -1.140625q0.421875 -0.484375 0.9375 -0.796875q0.515625 -0.3125 1.09375 -0.453125q0.59375 -0.140625 1.1875 -0.140625q0.953125 0 1.703125 0.3125q0.75 0.296875 1.265625 0.890625q0.53125 0.578125 0.8125 1.4375q0.28125 0.859375 0.28125 1.96875l0 7.734375l-2.140625 0l0 -7.734375q0 -1.4375 -0.625 -2.171875q-0.625 -0.734375 -1.8125 -0.734375q-0.53125 0 -1.0 0.1875q-0.46875 0.1875 -0.84375 0.546875q-0.359375 0.359375 -0.5625 0.90625q-0.203125 0.546875 -0.203125 1.265625l0 7.734375l-2.140625 0l0 -7.734375q0 -1.46875 -0.59375 -2.1875q-0.578125 -0.71875 -1.71875 -0.71875q-0.78125 0 -1.46875 0.421875q-0.671875 0.421875 -1.234375 1.15625l0 9.0625l-2.140625 0zm19.704132 4.109375l0 -16.265625l1.28125 0q0.453125 0 0.5625 0.4375l0.1875 1.453125q0.78125 -0.953125 1.78125 -1.53125q1.0 -0.578125 2.3125 -0.578125q1.046875 0 1.890625 0.40625q0.859375 0.40625 1.453125 1.1875q0.59375 0.78125 0.921875 1.953125q0.328125 1.15625 0.328125 2.671875q0 1.34375 -0.359375 2.5q-0.359375 1.15625 -1.03125 2.015625q-0.671875 0.84375 -1.65625 1.328125q-0.96875 0.484375 -2.203125 0.484375q-1.125 0 -1.921875 -0.375q-0.796875 -0.375 -1.40625 -1.0625l0 5.375l-2.140625 0zm5.40625 -14.75q-1.03125 0 -1.828125 0.484375q-0.78125 0.46875 -1.4375 1.34375l0 5.890625q0.578125 0.78125 1.28125 1.109375q0.703125 0.328125 1.578125 0.328125q1.6875 0 2.59375 -1.203125q0.921875 -1.21875 0.921875 -3.46875q0 -1.1875 -0.21875 -2.03125q-0.203125 -0.859375 -0.609375 -1.40625q-0.390625 -0.546875 -0.96875 -0.796875q-0.578125 -0.25 -1.3125 -0.25zm12.763702 -1.703125q1.328125 0 2.40625 0.453125q1.078125 0.4375 1.828125 1.25q0.75 0.8125 1.140625 1.96875q0.40625 1.15625 0.40625 2.59375q0 1.4375 -0.40625 2.59375q-0.390625 1.140625 -1.140625 1.96875q-0.75 0.8125 -1.828125 1.25q-1.078125 0.4375 -2.40625 0.4375q-1.328125 0 -2.40625 -0.4375q-1.078125 -0.4375 -1.828125 -1.25q-0.75 -0.828125 -1.171875 -1.96875q-0.40625 -1.15625 -0.40625 -2.59375q0 -1.4375 0.40625 -2.59375q0.421875 -1.15625 1.171875 -1.96875q0.75 -0.8125 1.828125 -1.25q1.078125 -0.453125 2.40625 -0.453125zm0 10.84375q1.796875 0 2.6875 -1.203125q0.890625 -1.203125 0.890625 -3.375q0 -2.171875 -0.890625 -3.375q-0.890625 -1.21875 -2.6875 -1.21875q-0.90625 0 -1.578125 0.3125q-0.671875 0.3125 -1.125 0.90625q-0.453125 0.578125 -0.671875 1.4375q-0.21875 0.859375 -0.21875 1.9375q0 1.09375 0.21875 1.953125q0.21875 0.84375 0.671875 1.421875q0.453125 0.578125 1.125 0.890625q0.671875 0.3125 1.578125 0.3125zm8.422241 1.5l0 -12.15625l1.28125 0q0.453125 0 0.5625 0.4375l0.171875 1.328125q0.796875 -0.875 1.765625 -1.40625q0.984375 -0.546875 2.265625 -0.546875q1.0 0 1.75 0.328125q0.765625 0.328125 1.28125 0.9375q0.515625 0.609375 0.78125 1.46875q0.265625 0.84375 0.265625 1.875l0 7.734375l-2.140625 0l0 -7.734375q0 -1.390625 -0.640625 -2.140625q-0.625 -0.765625 -1.921875 -0.765625q-0.9375 0 -1.765625 0.453125q-0.828125 0.453125 -1.515625 1.234375l0 8.953125l-2.140625 0zm18.156586 -12.34375q1.09375 0 2.015625 0.375q0.921875 0.359375 1.59375 1.046875q0.671875 0.6875 1.046875 1.703125q0.390625 1.015625 0.390625 2.3125q0 0.5 -0.109375 0.671875q-0.109375 0.15625 -0.40625 0.15625l-8.09375 0q0.03125 1.15625 0.3125 2.015625q0.28125 0.84375 0.78125 1.421875q0.515625 0.5625 1.203125 0.84375q0.703125 0.28125 1.5625 0.28125q0.8125 0 1.390625 -0.1875q0.578125 -0.1875 1.0 -0.390625q0.421875 -0.21875 0.703125 -0.40625q0.28125 -0.1875 0.484375 -0.1875q0.265625 0 0.40625 0.203125l0.609375 0.78125q-0.40625 0.484375 -0.953125 0.84375q-0.546875 0.34375 -1.1875 0.578125q-0.625 0.21875 -1.296875 0.328125q-0.671875 0.125 -1.328125 0.125q-1.265625 0 -2.328125 -0.421875q-1.0625 -0.4375 -1.84375 -1.25q-0.765625 -0.828125 -1.203125 -2.03125q-0.421875 -1.21875 -0.421875 -2.796875q0 -1.265625 0.390625 -2.359375q0.390625 -1.109375 1.109375 -1.921875q0.734375 -0.8125 1.796875 -1.265625q1.0625 -0.46875 2.375 -0.46875zm0.046875 1.5625q-1.546875 0 -2.4375 0.90625q-0.890625 0.890625 -1.09375 2.46875l6.609375 0q0 -0.734375 -0.203125 -1.359375q-0.203125 -0.625 -0.609375 -1.0625q-0.390625 -0.453125 -0.96875 -0.703125q-0.5625 -0.25 -1.296875 -0.25zm7.716736 10.78125l0 -12.15625l1.28125 0q0.453125 0 0.5625 0.4375l0.171875 1.328125q0.796875 -0.875 1.765625 -1.40625q0.984375 -0.546875 2.265625 -0.546875q1.0 0 1.75 0.328125q0.765625 0.328125 1.28125 0.9375q0.515625 0.609375 0.78125 1.46875q0.265625 0.84375 0.265625 1.875l0 7.734375l-2.140625 0l0 -7.734375q0 -1.390625 -0.640625 -2.140625q-0.625 -0.765625 -1.921875 -0.765625q-0.9375 0 -1.765625 0.453125q-0.828125 0.453125 -1.515625 1.234375l0 8.953125l-2.140625 0zm17.031616 0.1875q-1.4375 0 -2.21875 -0.796875q-0.765625 -0.8125 -0.765625 -2.3125l0 -7.453125l-1.46875 0q-0.1875 0 -0.328125 -0.109375q-0.125 -0.109375 -0.125 -0.359375l0 -0.84375l1.984375 -0.25l0.5 -3.765625q0.015625 -0.171875 0.140625 -0.28125q0.140625 -0.125 0.34375 -0.125l1.078125 0l0 4.1875l3.484375 0l0 1.546875l-3.484375 0l0 7.296875q0 0.78125 0.375 1.15625q0.375 0.359375 0.96875 0.359375q0.328125 0 0.578125 -0.078125q0.25 -0.09375 0.421875 -0.203125q0.1875 -0.109375 0.3125 -0.203125q0.125 -0.09375 0.21875 -0.09375q0.171875 0 0.296875 0.203125l0.625 1.03125q-0.546875 0.515625 -1.328125 0.8125q-0.78125 0.28125 -1.609375 0.28125z" fill-rule="nonzero"></path><path fill="#cfe2f3" d="m369.65616 213.14568l0 0c0 -8.996017 7.2927246 -16.288727 16.288727 -16.288727l180.021 0c4.3200073 0 8.463135 1.7161407 11.517883 4.770859c3.0546875 3.0547333 4.770813 7.19783 4.770813 11.517868l0 65.15486c0 8.996002 -7.2926636 16.288696 -16.288696 16.288696l-180.021 0c-8.996002 0 -16.288727 -7.292694 -16.288727 -16.288696z" fill-rule="nonzero"></path><path stroke="#9fc5e8" stroke-width="2.0" stroke-linejoin="round" stroke-linecap="butt" d="m369.65616 213.14568l0 0c0 -8.996017 7.2927246 -16.288727 16.288727 -16.288727l180.021 0c4.3200073 0 8.463135 1.7161407 11.517883 4.770859c3.0546875 3.0547333 4.770813 7.19783 4.770813 11.517868l0 65.15486c0 8.996002 -7.2926636 16.288696 -16.288696 16.288696l-180.021 0c-8.996002 0 -16.288727 -7.292694 -16.288727 -16.288696z" fill-rule="nonzero"></path><path fill="#cc0000" d="m388.0676 233.32559l0 6.4375l-2.3125 0l0 -17.203125l5.078125 0q1.625 0 2.828125 0.390625q1.21875 0.375 2.0 1.078125q0.796875 0.6875 1.1875 1.671875q0.390625 0.984375 0.390625 2.1875q0 1.203125 -0.421875 2.203125q-0.421875 1.0 -1.234375 1.71875q-0.796875 0.71875 -2.0 1.125q-1.203125 0.390625 -2.75 0.390625l-2.765625 0zm0 -1.84375l2.765625 0q1.0 0 1.75 -0.265625q0.765625 -0.265625 1.28125 -0.734375q0.515625 -0.46875 0.78125 -1.125q0.265625 -0.671875 0.265625 -1.46875q0 -1.640625 -1.015625 -2.5625q-1.015625 -0.921875 -3.0625 -0.921875l-2.765625 0l0 7.078125zm11.773468 8.28125l0 -12.15625l1.21875 0q0.359375 0 0.484375 0.140625q0.140625 0.125 0.1875 0.453125l0.140625 1.890625q0.625 -1.265625 1.53125 -1.984375q0.921875 -0.71875 2.15625 -0.71875q0.515625 0 0.921875 0.125q0.40625 0.109375 0.75 0.3125l-0.265625 1.59375q-0.09375 0.296875 -0.375 0.296875q-0.171875 0 -0.53125 -0.109375q-0.34375 -0.109375 -0.953125 -0.109375q-1.125 0 -1.875 0.65625q-0.75 0.640625 -1.25 1.875l0 7.734375l-2.140625 0zm14.593964 -12.34375q1.328125 0 2.40625 0.453125q1.078125 0.4375 1.828125 1.25q0.75 0.8125 1.140625 1.96875q0.40625 1.15625 0.40625 2.59375q0 1.4375 -0.40625 2.59375q-0.390625 1.140625 -1.140625 1.96875q-0.75 0.8125 -1.828125 1.25q-1.078125 0.4375 -2.40625 0.4375q-1.328125 0 -2.40625 -0.4375q-1.078125 -0.4375 -1.828125 -1.25q-0.75 -0.828125 -1.171875 -1.96875q-0.40625 -1.15625 -0.40625 -2.59375q0 -1.4375 0.40625 -2.59375q0.421875 -1.15625 1.171875 -1.96875q0.75 -0.8125 1.828125 -1.25q1.078125 -0.453125 2.40625 -0.453125zm0 10.84375q1.796875 0 2.6875 -1.203125q0.890625 -1.203125 0.890625 -3.375q0 -2.171875 -0.890625 -3.375q-0.890625 -1.21875 -2.6875 -1.21875q-0.90625 0 -1.578125 0.3125q-0.671875 0.3125 -1.125 0.90625q-0.453125 0.578125 -0.671875 1.4375q-0.21875 0.859375 -0.21875 1.9375q0 1.09375 0.21875 1.953125q0.21875 0.84375 0.671875 1.421875q0.453125 0.578125 1.125 0.890625q0.671875 0.3125 1.578125 0.3125zm8.422211 5.609375l0 -16.265625l1.28125 0q0.453125 0 0.5625 0.4375l0.1875 1.453125q0.78125 -0.953125 1.78125 -1.53125q1.0 -0.578125 2.3125 -0.578125q1.046875 0 1.890625 0.40625q0.859375 0.40625 1.453125 1.1875q0.59375 0.78125 0.921875 1.953125q0.328125 1.15625 0.328125 2.671875q0 1.34375 -0.359375 2.5q-0.359375 1.15625 -1.03125 2.015625q-0.671875 0.84375 -1.65625 1.328125q-0.96875 0.484375 -2.203125 0.484375q-1.125 0 -1.921875 -0.375q-0.796875 -0.375 -1.40625 -1.0625l0 5.375l-2.140625 0zm5.40625 -14.75q-1.03125 0 -1.828125 0.484375q-0.78125 0.46875 -1.4375 1.34375l0 5.890625q0.578125 0.78125 1.28125 1.109375q0.703125 0.328125 1.578125 0.328125q1.6875 0 2.59375 -1.203125q0.921875 -1.21875 0.921875 -3.46875q0 -1.1875 -0.21875 -2.03125q-0.203125 -0.859375 -0.609375 -1.40625q-0.390625 -0.546875 -0.96875 -0.796875q-0.578125 -0.25 -1.3125 -0.25zm14.810608 0.484375q-0.15625 0.265625 -0.453125 0.265625q-0.171875 0 -0.40625 -0.125q-0.234375 -0.140625 -0.5625 -0.296875q-0.328125 -0.15625 -0.78125 -0.296875q-0.453125 -0.140625 -1.078125 -0.140625q-0.546875 0 -0.984375 0.140625q-0.421875 0.140625 -0.734375 0.375q-0.296875 0.234375 -0.46875 0.5625q-0.15625 0.3125 -0.15625 0.6875q0 0.46875 0.265625 0.78125q0.28125 0.3125 0.71875 0.546875q0.453125 0.21875 1.015625 0.390625q0.5625 0.171875 1.15625 0.375q0.59375 0.1875 1.15625 0.4375q0.5625 0.234375 1.0 0.59375q0.453125 0.359375 0.71875 0.890625q0.265625 0.515625 0.265625 1.25q0 0.84375 -0.296875 1.5625q-0.296875 0.703125 -0.890625 1.234375q-0.578125 0.515625 -1.4375 0.8125q-0.84375 0.296875 -1.96875 0.296875q-1.265625 0 -2.296875 -0.40625q-1.03125 -0.421875 -1.75 -1.0625l0.5 -0.8125q0.09375 -0.15625 0.21875 -0.234375q0.140625 -0.09375 0.359375 -0.09375q0.21875 0 0.453125 0.171875q0.234375 0.15625 0.578125 0.359375q0.34375 0.203125 0.828125 0.375q0.484375 0.171875 1.21875 0.171875q0.625 0 1.09375 -0.15625q0.46875 -0.171875 0.78125 -0.4375q0.3125 -0.28125 0.453125 -0.640625q0.15625 -0.359375 0.15625 -0.765625q0 -0.515625 -0.265625 -0.84375q-0.265625 -0.328125 -0.71875 -0.5625q-0.4375 -0.234375 -1.015625 -0.40625q-0.5625 -0.171875 -1.15625 -0.359375q-0.59375 -0.203125 -1.171875 -0.4375q-0.5625 -0.25 -1.015625 -0.625q-0.4375 -0.375 -0.71875 -0.921875q-0.265625 -0.546875 -0.265625 -1.3125q0 -0.703125 0.28125 -1.34375q0.296875 -0.640625 0.84375 -1.125q0.5625 -0.484375 1.359375 -0.765625q0.8125 -0.296875 1.84375 -0.296875q1.203125 0 2.15625 0.375q0.953125 0.375 1.640625 1.03125l-0.46875 0.78125z" fill-rule="nonzero"></path><path fill="#cc0000" d="m385.30197 260.90372l9.59375 0l0 1.5625l-9.59375 0l0 -1.5625z" fill-rule="nonzero"></path><path fill="#cfe2f3" d="m369.65616 120.27692l212.59842 0l0 92.755905l-212.59842 0z" fill-rule="nonzero"></path><path stroke="#9fc5e8" stroke-width="2.0" stroke-linejoin="round" stroke-linecap="butt" d="m369.65616 120.27692l212.59842 0l0 92.755905l-212.59842 0z" fill-rule="nonzero"></path><path fill="#6aa84f" d="m389.54678 146.17924q-0.109375 0.1875 -0.234375 0.28125q-0.109375 0.09375 -0.296875 0.09375q-0.203125 0 -0.484375 -0.203125q-0.265625 -0.21875 -0.6875 -0.453125q-0.40625 -0.25 -0.984375 -0.453125q-0.578125 -0.203125 -1.40625 -0.203125q-0.78125 0 -1.390625 0.21875q-0.59375 0.203125 -1.0 0.5625q-0.390625 0.359375 -0.609375 0.84375q-0.203125 0.484375 -0.203125 1.046875q0 0.71875 0.359375 1.203125q0.359375 0.46875 0.9375 0.8125q0.578125 0.328125 1.3125 0.578125q0.75 0.234375 1.515625 0.5q0.78125 0.265625 1.515625 0.59375q0.734375 0.328125 1.3125 0.84375q0.59375 0.5 0.9375 1.234375q0.359375 0.734375 0.359375 1.796875q0 1.125 -0.390625 2.125q-0.375 0.984375 -1.125 1.71875q-0.734375 0.734375 -1.8125 1.15625q-1.0625 0.40625 -2.4375 0.40625q-1.65625 0 -3.03125 -0.59375q-1.375 -0.609375 -2.34375 -1.640625l0.671875 -1.109375q0.09375 -0.125 0.21875 -0.21875q0.140625 -0.09375 0.3125 -0.09375q0.25 0 0.578125 0.28125q0.328125 0.265625 0.8125 0.59375q0.484375 0.3125 1.171875 0.59375q0.6875 0.265625 1.6875 0.265625q0.828125 0 1.46875 -0.234375q0.65625 -0.234375 1.109375 -0.640625q0.453125 -0.421875 0.6875 -0.984375q0.234375 -0.578125 0.234375 -1.296875q0 -0.765625 -0.359375 -1.265625q-0.34375 -0.5 -0.921875 -0.828125q-0.578125 -0.34375 -1.3125 -0.578125q-0.734375 -0.234375 -1.515625 -0.484375q-0.765625 -0.25 -1.515625 -0.5625q-0.734375 -0.328125 -1.3125 -0.84375q-0.578125 -0.515625 -0.9375 -1.28125q-0.34375 -0.78125 -0.34375 -1.921875q0 -0.921875 0.34375 -1.765625q0.359375 -0.859375 1.03125 -1.515625q0.671875 -0.65625 1.65625 -1.046875q1.0 -0.40625 2.28125 -0.40625q1.453125 0 2.640625 0.46875q1.1875 0.453125 2.0625 1.3125l-0.5625 1.09375zm7.266968 14.703125q-1.4375 0 -2.21875 -0.796875q-0.765625 -0.8125 -0.765625 -2.3125l0 -7.453125l-1.46875 0q-0.1875 0 -0.328125 -0.109375q-0.125 -0.109375 -0.125 -0.359375l0 -0.84375l1.984375 -0.25l0.5 -3.765625q0.015625 -0.171875 0.140625 -0.28125q0.140625 -0.125 0.34375 -0.125l1.078125 0l0 4.1875l3.484375 0l0 1.546875l-3.484375 0l0 7.296875q0 0.78125 0.375 1.15625q0.375 0.359375 0.96875 0.359375q0.328125 0 0.578125 -0.078125q0.25 -0.09375 0.421875 -0.203125q0.1875 -0.109375 0.3125 -0.203125q0.125 -0.09375 0.21875 -0.09375q0.171875 0 0.296875 0.203125l0.625 1.03125q-0.546875 0.515625 -1.328125 0.8125q-0.78125 0.28125 -1.609375 0.28125zm14.202057 -0.1875l-0.953125 0q-0.3125 0 -0.515625 -0.09375q-0.1875 -0.09375 -0.25 -0.40625l-0.234375 -1.125q-0.484375 0.421875 -0.9375 0.765625q-0.453125 0.34375 -0.953125 0.578125q-0.5 0.234375 -1.078125 0.34375q-0.5625 0.125 -1.265625 0.125q-0.703125 0 -1.328125 -0.1875q-0.609375 -0.203125 -1.078125 -0.59375q-0.453125 -0.40625 -0.71875 -1.0q-0.265625 -0.609375 -0.265625 -1.4375q0 -0.71875 0.390625 -1.390625q0.390625 -0.671875 1.265625 -1.1875q0.890625 -0.515625 2.3125 -0.84375q1.4375 -0.328125 3.5 -0.375l0 -0.953125q0 -1.40625 -0.609375 -2.125q-0.59375 -0.734375 -1.78125 -0.734375q-0.78125 0 -1.328125 0.203125q-0.53125 0.1875 -0.921875 0.4375q-0.390625 0.25 -0.671875 0.453125q-0.28125 0.1875 -0.546875 0.1875q-0.21875 0 -0.390625 -0.109375q-0.15625 -0.125 -0.25 -0.28125l-0.390625 -0.6875q1.015625 -0.96875 2.171875 -1.453125q1.171875 -0.484375 2.578125 -0.484375q1.03125 0 1.8125 0.34375q0.796875 0.328125 1.328125 0.9375q0.546875 0.59375 0.828125 1.453125q0.28125 0.84375 0.28125 1.859375l0 7.78125zm-5.546875 -1.3125q0.5625 0 1.03125 -0.109375q0.46875 -0.109375 0.875 -0.3125q0.421875 -0.21875 0.796875 -0.515625q0.375 -0.3125 0.734375 -0.6875l0 -2.53125q-1.46875 0.046875 -2.5 0.234375q-1.03125 0.1875 -1.6875 0.484375q-0.640625 0.296875 -0.9375 0.703125q-0.296875 0.40625 -0.296875 0.921875q0 0.46875 0.15625 0.828125q0.15625 0.34375 0.421875 0.5625q0.265625 0.21875 0.625 0.328125q0.359375 0.09375 0.78125 0.09375zm12.464966 1.5q-1.4375 0 -2.21875 -0.796875q-0.765625 -0.8125 -0.765625 -2.3125l0 -7.453125l-1.46875 0q-0.1875 0 -0.328125 -0.109375q-0.125 -0.109375 -0.125 -0.359375l0 -0.84375l1.984375 -0.25l0.5 -3.765625q0.015625 -0.171875 0.140625 -0.28125q0.140625 -0.125 0.34375 -0.125l1.078125 0l0 4.1875l3.484375 0l0 1.546875l-3.484375 0l0 7.296875q0 0.78125 0.375 1.15625q0.375 0.359375 0.96875 0.359375q0.328125 0 0.578125 -0.078125q0.25 -0.09375 0.421875 -0.203125q0.1875 -0.109375 0.3125 -0.203125q0.125 -0.09375 0.21875 -0.09375q0.171875 0 0.296875 0.203125l0.625 1.03125q-0.546875 0.515625 -1.328125 0.8125q-0.78125 0.28125 -1.609375 0.28125zm10.077057 -12.53125q1.09375 0 2.015625 0.375q0.921875 0.359375 1.59375 1.046875q0.671875 0.6875 1.046875 1.703125q0.390625 1.015625 0.390625 2.3125q0 0.5 -0.109375 0.671875q-0.109375 0.15625 -0.40625 0.15625l-8.09375 0q0.03125 1.15625 0.3125 2.015625q0.28125 0.84375 0.78125 1.421875q0.515625 0.5625 1.203125 0.84375q0.703125 0.28125 1.5625 0.28125q0.8125 0 1.390625 -0.1875q0.578125 -0.1875 1.0 -0.390625q0.421875 -0.21875 0.703125 -0.40625q0.28125 -0.1875 0.484375 -0.1875q0.265625 0 0.40625 0.203125l0.609375 0.78125q-0.40625 0.484375 -0.953125 0.84375q-0.546875 0.34375 -1.1875 0.578125q-0.625 0.21875 -1.296875 0.328125q-0.671875 0.125 -1.328125 0.125q-1.265625 0 -2.328125 -0.421875q-1.0625 -0.4375 -1.84375 -1.25q-0.765625 -0.828125 -1.203125 -2.03125q-0.421875 -1.21875 -0.421875 -2.796875q0 -1.265625 0.390625 -2.359375q0.390625 -1.109375 1.109375 -1.921875q0.734375 -0.8125 1.796875 -1.265625q1.0625 -0.46875 2.375 -0.46875zm0.046875 1.5625q-1.546875 0 -2.4375 0.90625q-0.890625 0.890625 -1.09375 2.46875l6.609375 0q0 -0.734375 -0.203125 -1.359375q-0.203125 -0.625 -0.609375 -1.0625q-0.390625 -0.453125 -0.96875 -0.703125q-0.5625 -0.25 -1.296875 -0.25z" fill-rule="nonzero"></path><path fill="#6aa84f" d="m380.40616 189.69487l0 -12.15625l1.28125 0q0.453125 0 0.5625 0.4375l0.15625 1.25q0.671875 -0.828125 1.5 -1.34375q0.84375 -0.53125 1.953125 -0.53125q1.234375 0 1.984375 0.6875q0.765625 0.671875 1.109375 1.84375q0.25 -0.65625 0.65625 -1.140625q0.421875 -0.484375 0.9375 -0.796875q0.515625 -0.3125 1.09375 -0.453125q0.59375 -0.140625 1.1875 -0.140625q0.953125 0 1.703125 0.3125q0.75 0.296875 1.265625 0.890625q0.53125 0.578125 0.8125 1.4375q0.28125 0.859375 0.28125 1.96875l0 7.734375l-2.140625 0l0 -7.734375q0 -1.4375 -0.625 -2.171875q-0.625 -0.734375 -1.8125 -0.734375q-0.53125 0 -1.0 0.1875q-0.46875 0.1875 -0.84375 0.546875q-0.359375 0.359375 -0.5625 0.90625q-0.203125 0.546875 -0.203125 1.265625l0 7.734375l-2.140625 0l0 -7.734375q0 -1.46875 -0.59375 -2.1875q-0.578125 -0.71875 -1.71875 -0.71875q-0.78125 0 -1.46875 0.421875q-0.671875 0.421875 -1.234375 1.15625l0 9.0625l-2.140625 0zm23.266632 3.59375q-0.109375 0.234375 -0.265625 0.375q-0.15625 0.140625 -0.5 0.140625l-1.578125 0l2.21875 -4.8125l-5.015625 -11.453125l1.84375 0q0.28125 0 0.4375 0.140625q0.15625 0.140625 0.21875 0.296875l3.25 7.65625q0.109375 0.265625 0.1875 0.53125q0.078125 0.265625 0.140625 0.546875q0.09375 -0.28125 0.171875 -0.546875q0.078125 -0.265625 0.1875 -0.53125l3.15625 -7.65625q0.078125 -0.1875 0.25 -0.3125q0.171875 -0.125 0.375 -0.125l1.703125 0l-6.78125 15.75zm11.819336 -3.59375l-2.328125 0l0 -17.203125l2.328125 0l0 17.203125zm7.9618225 0.1875q-1.4375 0 -2.21875 -0.796875q-0.765625 -0.8125 -0.765625 -2.3125l0 -7.453125l-1.46875 0q-0.1875 0 -0.328125 -0.109375q-0.125 -0.109375 -0.125 -0.359375l0 -0.84375l1.984375 -0.25l0.5 -3.765625q0.015625 -0.171875 0.140625 -0.28125q0.140625 -0.125 0.34375 -0.125l1.078125 0l0 4.1875l3.484375 0l0 1.546875l-3.484375 0l0 7.296875q0 0.78125 0.375 1.15625q0.375 0.359375 0.96875 0.359375q0.328125 0 0.578125 -0.078125q0.25 -0.09375 0.421875 -0.203125q0.1875 -0.109375 0.3125 -0.203125q0.125 -0.09375 0.21875 -0.09375q0.171875 0 0.296875 0.203125l0.625 1.03125q-0.546875 0.515625 -1.328125 0.8125q-0.78125 0.28125 -1.609375 0.28125zm10.077057 -12.53125q1.09375 0 2.015625 0.375q0.921875 0.359375 1.59375 1.046875q0.671875 0.6875 1.046875 1.703125q0.390625 1.015625 0.390625 2.3125q0 0.5 -0.109375 0.671875q-0.109375 0.15625 -0.40625 0.15625l-8.09375 0q0.03125 1.15625 0.3125 2.015625q0.28125 0.84375 0.78125 1.421875q0.515625 0.5625 1.203125 0.84375q0.703125 0.28125 1.5625 0.28125q0.8125 0 1.390625 -0.1875q0.578125 -0.1875 1.0 -0.390625q0.421875 -0.21875 0.703125 -0.40625q0.28125 -0.1875 0.484375 -0.1875q0.265625 0 0.40625 0.203125l0.609375 0.78125q-0.40625 0.484375 -0.953125 0.84375q-0.546875 0.34375 -1.1875 0.578125q-0.625 0.21875 -1.296875 0.328125q-0.671875 0.125 -1.328125 0.125q-1.265625 0 -2.328125 -0.421875q-1.0625 -0.4375 -1.84375 -1.25q-0.765625 -0.828125 -1.203125 -2.03125q-0.421875 -1.21875 -0.421875 -2.796875q0 -1.265625 0.390625 -2.359375q0.390625 -1.109375 1.109375 -1.921875q0.734375 -0.8125 1.796875 -1.265625q1.0625 -0.46875 2.375 -0.46875zm0.046875 1.5625q-1.546875 0 -2.4375 0.90625q-0.890625 0.890625 -1.09375 2.46875l6.609375 0q0 -0.734375 -0.203125 -1.359375q-0.203125 -0.625 -0.609375 -1.0625q-0.390625 -0.453125 -0.96875 -0.703125q-0.5625 -0.25 -1.296875 -0.25zm7.7167053 10.78125l0 -12.15625l1.28125 0q0.453125 0 0.5625 0.4375l0.15625 1.25q0.671875 -0.828125 1.5 -1.34375q0.84375 -0.53125 1.953125 -0.53125q1.234375 0 1.984375 0.6875q0.765625 0.671875 1.109375 1.84375q0.25 -0.65625 0.65625 -1.140625q0.421875 -0.484375 0.9375 -0.796875q0.515625 -0.3125 1.09375 -0.453125q0.59375 -0.140625 1.1875 -0.140625q0.953125 0 1.703125 0.3125q0.75 0.296875 1.265625 0.890625q0.53125 0.578125 0.8125 1.4375q0.28125 0.859375 0.28125 1.96875l0 7.734375l-2.140625 0l0 -7.734375q0 -1.4375 -0.625 -2.171875q-0.625 -0.734375 -1.8125 -0.734375q-0.53125 0 -1.0 0.1875q-0.46875 0.1875 -0.84375 0.546875q-0.359375 0.359375 -0.5625 0.90625q-0.203125 0.546875 -0.203125 1.265625l0 7.734375l-2.140625 0l0 -7.734375q0 -1.46875 -0.59375 -2.1875q-0.578125 -0.71875 -1.71875 -0.71875q-0.78125 0 -1.46875 0.421875q-0.671875 0.421875 -1.234375 1.15625l0 9.0625l-2.140625 0zm26.672882 -10.15625q-0.15625 0.265625 -0.453125 0.265625q-0.171875 0 -0.40625 -0.125q-0.234375 -0.140625 -0.5625 -0.296875q-0.328125 -0.15625 -0.78125 -0.296875q-0.453125 -0.140625 -1.078125 -0.140625q-0.546875 0 -0.984375 0.140625q-0.421875 0.140625 -0.734375 0.375q-0.296875 0.234375 -0.46875 0.5625q-0.15625 0.3125 -0.15625 0.6875q0 0.46875 0.265625 0.78125q0.28125 0.3125 0.71875 0.546875q0.453125 0.21875 1.015625 0.390625q0.5625 0.171875 1.15625 0.375q0.59375 0.1875 1.15625 0.4375q0.5625 0.234375 1.0 0.59375q0.453125 0.359375 0.71875 0.890625q0.265625 0.515625 0.265625 1.25q0 0.84375 -0.296875 1.5625q-0.296875 0.703125 -0.890625 1.234375q-0.578125 0.515625 -1.4375 0.8125q-0.84375 0.296875 -1.96875 0.296875q-1.265625 0 -2.296875 -0.40625q-1.03125 -0.421875 -1.75 -1.0625l0.5 -0.8125q0.09375 -0.15625 0.21875 -0.234375q0.140625 -0.09375 0.359375 -0.09375q0.21875 0 0.453125 0.171875q0.234375 0.15625 0.578125 0.359375q0.34375 0.203125 0.828125 0.375q0.484375 0.171875 1.21875 0.171875q0.625 0 1.09375 -0.15625q0.46875 -0.171875 0.78125 -0.4375q0.3125 -0.28125 0.453125 -0.640625q0.15625 -0.359375 0.15625 -0.765625q0 -0.515625 -0.265625 -0.84375q-0.265625 -0.328125 -0.71875 -0.5625q-0.4375 -0.234375 -1.015625 -0.40625q-0.5625 -0.171875 -1.15625 -0.359375q-0.59375 -0.203125 -1.171875 -0.4375q-0.5625 -0.25 -1.015625 -0.625q-0.4375 -0.375 -0.71875 -0.921875q-0.265625 -0.546875 -0.265625 -1.3125q0 -0.703125 0.28125 -1.34375q0.296875 -0.640625 0.84375 -1.125q0.5625 -0.484375 1.359375 -0.765625q0.8125 -0.296875 1.84375 -0.296875q1.203125 0 2.15625 0.375q0.953125 0.375 1.640625 1.03125l-0.46875 0.78125zm3.2285767 8.84375q0 -0.3125 0.109375 -0.59375q0.125 -0.28125 0.3125 -0.484375q0.203125 -0.203125 0.484375 -0.3125q0.28125 -0.125 0.59375 -0.125q0.3125 0 0.578125 0.125q0.28125 0.109375 0.484375 0.3125q0.203125 0.203125 0.3125 0.484375q0.125 0.28125 0.125 0.59375q0 0.3125 -0.125 0.59375q-0.109375 0.265625 -0.3125 0.46875q-0.203125 0.203125 -0.484375 0.3125q-0.265625 0.125 -0.578125 0.125q-0.3125 0 -0.59375 -0.125q-0.28125 -0.109375 -0.484375 -0.3125q-0.1875 -0.203125 -0.3125 -0.46875q-0.109375 -0.28125 -0.109375 -0.59375zm0 -9.0q0 -0.3125 0.109375 -0.59375q0.125 -0.28125 0.3125 -0.484375q0.203125 -0.203125 0.484375 -0.3125q0.28125 -0.125 0.59375 -0.125q0.3125 0 0.578125 0.125q0.28125 0.109375 0.484375 0.3125q0.203125 0.203125 0.3125 0.484375q0.125 0.28125 0.125 0.59375q0 0.3125 -0.125 0.59375q-0.109375 0.265625 -0.3125 0.46875q-0.203125 0.203125 -0.484375 0.328125q-0.265625 0.109375 -0.578125 0.109375q-0.3125 0 -0.59375 -0.109375q-0.28125 -0.125 -0.484375 -0.328125q-0.1875 -0.203125 -0.3125 -0.46875q-0.109375 -0.28125 -0.109375 -0.59375zm10.851959 13.78125l0 -21.859375l4.421875 0l0 0.828125q0 0.265625 -0.171875 0.421875q-0.15625 0.15625 -0.421875 0.15625l-2.03125 0l0 19.03125l2.03125 0q0.265625 0 0.421875 0.15625q0.171875 0.15625 0.171875 0.421875l0 0.84375l-4.421875 0zm8.934448 -5.09375l3.703125 0l0 -11.734375q0 -0.53125 0.03125 -1.0625l-3.0625 2.625q-0.125 0.09375 -0.25 0.140625q-0.109375 0.046875 -0.21875 0.046875q-0.1875 0 -0.328125 -0.078125q-0.140625 -0.078125 -0.21875 -0.1875l-0.671875 -0.921875l5.109375 -4.4375l1.75 0l0 15.609375l3.375 0l0 1.625l-9.21875 0l0 -1.625zm11.607605 0.15625q0 -0.28125 0.09375 -0.53125q0.109375 -0.25 0.296875 -0.421875q0.1875 -0.1875 0.453125 -0.296875q0.265625 -0.109375 0.578125 -0.109375q0.359375 0 0.640625 0.140625q0.28125 0.125 0.46875 0.359375q0.1875 0.234375 0.28125 0.546875q0.09375 0.296875 0.09375 0.65625q0 0.53125 -0.15625 1.125q-0.15625 0.578125 -0.453125 1.140625q-0.28125 0.578125 -0.703125 1.109375q-0.421875 0.546875 -0.96875 1.0l-0.359375 -0.34375q-0.15625 -0.140625 -0.15625 -0.34375q0 -0.15625 0.171875 -0.3125q0.125 -0.140625 0.296875 -0.359375q0.1875 -0.21875 0.375 -0.515625q0.203125 -0.28125 0.359375 -0.640625q0.171875 -0.34375 0.234375 -0.734375l-0.15625 0q-0.3125 0 -0.5625 -0.109375q-0.25 -0.109375 -0.4375 -0.296875q-0.1875 -0.203125 -0.296875 -0.46875q-0.09375 -0.28125 -0.09375 -0.59375zm15.813812 -15.921875q1.078125 0 2.03125 0.328125q0.953125 0.328125 1.640625 0.953125q0.6875 0.609375 1.078125 1.5q0.40625 0.875 0.40625 2.015625q0 0.953125 -0.296875 1.765625q-0.28125 0.8125 -0.78125 1.5625q-0.484375 0.75 -1.125 1.453125q-0.640625 0.703125 -1.359375 1.4375l-4.53125 4.640625q0.484375 -0.140625 0.96875 -0.21875q0.5 -0.078125 0.953125 -0.078125l5.765625 0q0.34375 0 0.546875 0.203125q0.203125 0.203125 0.203125 0.53125l0 1.296875l-11.46875 0l0 -0.734375q0 -0.21875 0.078125 -0.453125q0.09375 -0.25 0.296875 -0.453125l5.515625 -5.53125q0.6875 -0.703125 1.25 -1.34375q0.5625 -0.640625 0.953125 -1.28125q0.40625 -0.65625 0.625 -1.3125q0.21875 -0.671875 0.21875 -1.4375q0 -0.75 -0.25 -1.3125q-0.234375 -0.578125 -0.65625 -0.953125q-0.40625 -0.375 -0.984375 -0.546875q-0.5625 -0.1875 -1.203125 -0.1875q-0.65625 0 -1.203125 0.1875q-0.546875 0.1875 -0.984375 0.53125q-0.421875 0.34375 -0.71875 0.8125q-0.28125 0.46875 -0.40625 1.03125q-0.09375 0.34375 -0.296875 0.5q-0.1875 0.15625 -0.5 0.15625q-0.0625 0 -0.125 0q-0.0625 -0.015625 -0.140625 -0.015625l-1.125 -0.203125q0.171875 -1.171875 0.640625 -2.078125q0.484375 -0.90625 1.21875 -1.515625q0.75 -0.609375 1.703125 -0.921875q0.953125 -0.328125 2.0625 -0.328125zm7.77948 20.015625q0 -0.234375 0.15625 -0.40625q0.171875 -0.171875 0.4375 -0.171875l2.03125 0l0 -19.03125l-2.03125 0q-0.265625 0 -0.4375 -0.15625q-0.15625 -0.171875 -0.15625 -0.421875l0 -0.828125l4.421875 0l0 21.859375l-4.421875 0l0 -0.84375z" fill-rule="nonzero"></path><path fill="#cfe2f3" d="m121.27821 436.85434l0 0c0 -6.3201294 5.123459 -11.443573 11.443573 -11.443573l185.4908 0c3.0350342 0 5.9457397 1.205658 8.091827 3.3517456c2.1460876 2.1460876 3.3517456 5.056793 3.3517456 8.091827l0 45.77426c0 6.3201294 -5.1234436 11.443573 -11.443573 11.443573l-185.4908 0c-6.320114 0 -11.443573 -5.1234436 -11.443573 -11.443573z" fill-rule="nonzero"></path><path stroke="#9fc5e8" stroke-width="2.0" stroke-linejoin="round" stroke-linecap="butt" d="m121.27821 436.85434l0 0c0 -6.3201294 5.123459 -11.443573 11.443573 -11.443573l185.4908 0c3.0350342 0 5.9457397 1.205658 8.091827 3.3517456c2.1460876 2.1460876 3.3517456 5.056793 3.3517456 8.091827l0 45.77426c0 6.3201294 -5.1234436 11.443573 -11.443573 11.443573l-185.4908 0c-6.320114 0 -11.443573 -5.1234436 -11.443573 -11.443573z" fill-rule="nonzero"></path><path fill="#000000" d="m177.52188 464.7346q0.203125 0 0.359375 0.15625l0.90625 0.984375q-1.0625 1.234375 -2.5625 1.921875q-1.5 0.671875 -3.625 0.671875q-1.859375 0 -3.375 -0.640625q-1.515625 -0.640625 -2.59375 -1.796875q-1.0625 -1.15625 -1.65625 -2.765625q-0.578125 -1.625 -0.578125 -3.578125q0 -1.9375 0.625 -3.5625q0.640625 -1.625 1.78125 -2.78125q1.140625 -1.171875 2.71875 -1.8125q1.59375 -0.640625 3.515625 -0.640625q1.890625 0 3.265625 0.59375q1.375 0.578125 2.453125 1.59375l-0.765625 1.0625q-0.078125 0.125 -0.1875 0.203125q-0.109375 0.078125 -0.3125 0.078125q-0.15625 0 -0.328125 -0.109375q-0.171875 -0.125 -0.421875 -0.28125q-0.234375 -0.171875 -0.5625 -0.359375q-0.3125 -0.203125 -0.765625 -0.359375q-0.4375 -0.171875 -1.03125 -0.28125q-0.59375 -0.125 -1.359375 -0.125q-1.375 0 -2.53125 0.484375q-1.140625 0.46875 -1.96875 1.34375q-0.828125 0.875 -1.296875 2.140625q-0.453125 1.25 -0.453125 2.8125q0 1.609375 0.453125 2.875q0.46875 1.25 1.265625 2.125q0.796875 0.875 1.890625 1.328125q1.09375 0.453125 2.359375 0.453125q0.765625 0 1.375 -0.078125q0.609375 -0.09375 1.125 -0.28125q0.53125 -0.203125 0.984375 -0.5q0.453125 -0.296875 0.90625 -0.703125q0.203125 -0.171875 0.390625 -0.171875zm8.908859 -8.796875q1.328125 0 2.40625 0.453125q1.078125 0.4375 1.828125 1.25q0.75 0.8125 1.140625 1.96875q0.40625 1.15625 0.40625 2.59375q0 1.4375 -0.40625 2.59375q-0.390625 1.140625 -1.140625 1.96875q-0.75 0.8125 -1.828125 1.25q-1.078125 0.4375 -2.40625 0.4375q-1.328125 0 -2.40625 -0.4375q-1.078125 -0.4375 -1.828125 -1.25q-0.75 -0.828125 -1.171875 -1.96875q-0.40625 -1.15625 -0.40625 -2.59375q0 -1.4375 0.40625 -2.59375q0.421875 -1.15625 1.171875 -1.96875q0.75 -0.8125 1.828125 -1.25q1.078125 -0.453125 2.40625 -0.453125zm0 10.84375q1.796875 0 2.6875 -1.203125q0.890625 -1.203125 0.890625 -3.375q0 -2.171875 -0.890625 -3.375q-0.890625 -1.21875 -2.6875 -1.21875q-0.90625 0 -1.578125 0.3125q-0.671875 0.3125 -1.125 0.90625q-0.453125 0.578125 -0.671875 1.4375q-0.21875 0.859375 -0.21875 1.9375q0 1.09375 0.21875 1.953125q0.21875 0.84375 0.671875 1.421875q0.453125 0.578125 1.125 0.890625q0.671875 0.3125 1.578125 0.3125zm8.422226 1.5l0 -12.15625l1.28125 0q0.453125 0 0.5625 0.4375l0.15625 1.25q0.671875 -0.828125 1.5 -1.34375q0.84375 -0.53125 1.953125 -0.53125q1.234375 0 1.984375 0.6875q0.765625 0.671875 1.109375 1.84375q0.25 -0.65625 0.65625 -1.140625q0.421875 -0.484375 0.9375 -0.796875q0.515625 -0.3125 1.09375 -0.453125q0.59375 -0.140625 1.1875 -0.140625q0.953125 0 1.703125 0.3125q0.75 0.296875 1.265625 0.890625q0.53125 0.578125 0.8125 1.4375q0.28125 0.859375 0.28125 1.96875l0 7.734375l-2.140625 0l0 -7.734375q0 -1.4375 -0.625 -2.171875q-0.625 -0.734375 -1.8125 -0.734375q-0.53125 0 -1.0 0.1875q-0.46875 0.1875 -0.84375 0.546875q-0.359375 0.359375 -0.5625 0.90625q-0.203125 0.546875 -0.203125 1.265625l0 7.734375l-2.140625 0l0 -7.734375q0 -1.46875 -0.59375 -2.1875q-0.578125 -0.71875 -1.71875 -0.71875q-0.78125 0 -1.46875 0.421875q-0.671875 0.421875 -1.234375 1.15625l0 9.0625l-2.140625 0zm19.704132 4.109375l0 -16.265625l1.28125 0q0.453125 0 0.5625 0.4375l0.1875 1.453125q0.78125 -0.953125 1.78125 -1.53125q1.0 -0.578125 2.3125 -0.578125q1.046875 0 1.890625 0.40625q0.859375 0.40625 1.453125 1.1875q0.59375 0.78125 0.921875 1.953125q0.328125 1.15625 0.328125 2.671875q0 1.34375 -0.359375 2.5q-0.359375 1.15625 -1.03125 2.015625q-0.671875 0.84375 -1.65625 1.328125q-0.96875 0.484375 -2.203125 0.484375q-1.125 0 -1.921875 -0.375q-0.796875 -0.375 -1.40625 -1.0625l0 5.375l-2.140625 0zm5.40625 -14.75q-1.03125 0 -1.828125 0.484375q-0.78125 0.46875 -1.4375 1.34375l0 5.890625q0.578125 0.78125 1.28125 1.109375q0.703125 0.328125 1.578125 0.328125q1.6875 0 2.59375 -1.203125q0.921875 -1.21875 0.921875 -3.46875q0 -1.1875 -0.21875 -2.03125q-0.203125 -0.859375 -0.609375 -1.40625q-0.390625 -0.546875 -0.96875 -0.796875q-0.578125 -0.25 -1.3125 -0.25zm12.763718 -1.703125q1.328125 0 2.40625 0.453125q1.078125 0.4375 1.828125 1.25q0.75 0.8125 1.140625 1.96875q0.40625 1.15625 0.40625 2.59375q0 1.4375 -0.40625 2.59375q-0.390625 1.140625 -1.140625 1.96875q-0.75 0.8125 -1.828125 1.25q-1.078125 0.4375 -2.40625 0.4375q-1.328125 0 -2.40625 -0.4375q-1.078125 -0.4375 -1.828125 -1.25q-0.75 -0.828125 -1.171875 -1.96875q-0.40625 -1.15625 -0.40625 -2.59375q0 -1.4375 0.40625 -2.59375q0.421875 -1.15625 1.171875 -1.96875q0.75 -0.8125 1.828125 -1.25q1.078125 -0.453125 2.40625 -0.453125zm0 10.84375q1.796875 0 2.6875 -1.203125q0.890625 -1.203125 0.890625 -3.375q0 -2.171875 -0.890625 -3.375q-0.890625 -1.21875 -2.6875 -1.21875q-0.90625 0 -1.578125 0.3125q-0.671875 0.3125 -1.125 0.90625q-0.453125 0.578125 -0.671875 1.4375q-0.21875 0.859375 -0.21875 1.9375q0 1.09375 0.21875 1.953125q0.21875 0.84375 0.671875 1.421875q0.453125 0.578125 1.125 0.890625q0.671875 0.3125 1.578125 0.3125zm8.422226 1.5l0 -12.15625l1.28125 0q0.453125 0 0.5625 0.4375l0.171875 1.328125q0.796875 -0.875 1.765625 -1.40625q0.984375 -0.546875 2.265625 -0.546875q1.0 0 1.75 0.328125q0.765625 0.328125 1.28125 0.9375q0.515625 0.609375 0.78125 1.46875q0.265625 0.84375 0.265625 1.875l0 7.734375l-2.140625 0l0 -7.734375q0 -1.390625 -0.640625 -2.140625q-0.625 -0.765625 -1.921875 -0.765625q-0.9375 0 -1.765625 0.453125q-0.828125 0.453125 -1.515625 1.234375l0 8.953125l-2.140625 0zm18.156586 -12.34375q1.09375 0 2.015625 0.375q0.921875 0.359375 1.59375 1.046875q0.671875 0.6875 1.046875 1.703125q0.390625 1.015625 0.390625 2.3125q0 0.5 -0.109375 0.671875q-0.109375 0.15625 -0.40625 0.15625l-8.093735 0q0.03125 1.15625 0.31248474 2.015625q0.28125 0.84375 0.78125 1.421875q0.515625 0.5625 1.203125 0.84375q0.703125 0.28125 1.5625 0.28125q0.8125 0 1.390625 -0.1875q0.578125 -0.1875 1.0 -0.390625q0.421875 -0.21875 0.703125 -0.40625q0.28125 -0.1875 0.484375 -0.1875q0.265625 0 0.40625 0.203125l0.609375 0.78125q-0.40625 0.484375 -0.953125 0.84375q-0.546875 0.34375 -1.1875 0.578125q-0.625 0.21875 -1.296875 0.328125q-0.671875 0.125 -1.328125 0.125q-1.265625 0 -2.328125 -0.421875q-1.0625 -0.4375 -1.8437347 -1.25q-0.765625 -0.828125 -1.203125 -2.03125q-0.421875 -1.21875 -0.421875 -2.796875q0 -1.265625 0.390625 -2.359375q0.390625 -1.109375 1.109375 -1.921875q0.734375 -0.8125 1.7968597 -1.265625q1.0625 -0.46875 2.375 -0.46875zm0.046875 1.5625q-1.546875 0 -2.4375 0.90625q-0.890625 0.890625 -1.0937347 2.46875l6.6093597 0q0 -0.734375 -0.203125 -1.359375q-0.203125 -0.625 -0.609375 -1.0625q-0.390625 -0.453125 -0.96875 -0.703125q-0.5625 -0.25 -1.296875 -0.25zm7.716736 10.78125l0 -12.15625l1.28125 0q0.453125 0 0.5625 0.4375l0.171875 1.328125q0.796875 -0.875 1.765625 -1.40625q0.984375 -0.546875 2.265625 -0.546875q1.0 0 1.75 0.328125q0.765625 0.328125 1.28125 0.9375q0.515625 0.609375 0.78125 1.46875q0.265625 0.84375 0.265625 1.875l0 7.734375l-2.140625 0l0 -7.734375q0 -1.390625 -0.640625 -2.140625q-0.625 -0.765625 -1.921875 -0.765625q-0.9375 0 -1.765625 0.453125q-0.828125 0.453125 -1.515625 1.234375l0 8.953125l-2.140625 0zm17.031586 0.1875q-1.4375 0 -2.21875 -0.796875q-0.765625 -0.8125 -0.765625 -2.3125l0 -7.453125l-1.46875 0q-0.1875 0 -0.328125 -0.109375q-0.125 -0.109375 -0.125 -0.359375l0 -0.84375l1.984375 -0.25l0.5 -3.765625q0.015625 -0.171875 0.140625 -0.28125q0.140625 -0.125 0.34375 -0.125l1.078125 0l0 4.1875l3.484375 0l0 1.546875l-3.484375 0l0 7.296875q0 0.78125 0.375 1.15625q0.375 0.359375 0.96875 0.359375q0.328125 0 0.578125 -0.078125q0.25 -0.09375 0.421875 -0.203125q0.1875 -0.109375 0.3125 -0.203125q0.125 -0.09375 0.21875 -0.09375q0.171875 0 0.296875 0.203125l0.625 1.03125q-0.546875 0.515625 -1.328125 0.8125q-0.78125 0.28125 -1.609375 0.28125z" fill-rule="nonzero"></path><path fill="#cfe2f3" d="m121.27821 576.80707l0 0c0 -8.995972 7.2927094 -16.288696 16.288712 -16.288696l175.80054 0c4.320038 0 8.463135 1.7161255 11.517853 4.770874c3.054718 3.0546875 4.7708435 7.197815 4.7708435 11.517822l0 65.15485c0 8.996033 -7.292694 16.288757 -16.288696 16.288757l-175.80054 0c-8.996002 0 -16.288712 -7.2927246 -16.288712 -16.288757z" fill-rule="nonzero"></path><path stroke="#9fc5e8" stroke-width="2.0" stroke-linejoin="round" stroke-linecap="butt" d="m121.27821 576.80707l0 0c0 -8.995972 7.2927094 -16.288696 16.288712 -16.288696l175.80054 0c4.320038 0 8.463135 1.7161255 11.517853 4.770874c3.054718 3.0546875 4.7708435 7.197815 4.7708435 11.517822l0 65.15485c0 8.996033 -7.292694 16.288757 -16.288696 16.288757l-175.80054 0c-8.996002 0 -16.288712 -7.2927246 -16.288712 -16.288757z" fill-rule="nonzero"></path><path fill="#cc0000" d="m139.68964 596.987l0 6.4375l-2.3125 0l0 -17.203125l5.078125 0q1.625 0 2.828125 0.390625q1.21875 0.375 2.0 1.078125q0.796875 0.6875 1.1875 1.671875q0.390625 0.984375 0.390625 2.1875q0 1.203125 -0.421875 2.203125q-0.421875 1.0 -1.234375 1.71875q-0.796875 0.71875 -2.0 1.125q-1.203125 0.390625 -2.75 0.390625l-2.765625 0zm0 -1.84375l2.765625 0q1.0 0 1.75 -0.265625q0.765625 -0.265625 1.28125 -0.734375q0.515625 -0.46875 0.78125 -1.125q0.265625 -0.671875 0.265625 -1.46875q0 -1.640625 -1.015625 -2.5625q-1.015625 -0.921875 -3.0625 -0.921875l-2.765625 0l0 7.078125zm11.773483 8.28125l0 -12.15625l1.21875 0q0.359375 0 0.484375 0.140625q0.140625 0.125 0.1875 0.453125l0.140625 1.890625q0.625 -1.265625 1.53125 -1.984375q0.921875 -0.71875 2.15625 -0.71875q0.515625 0 0.921875 0.125q0.40625 0.109375 0.75 0.3125l-0.265625 1.59375q-0.09375 0.296875 -0.375 0.296875q-0.171875 0 -0.53125 -0.109375q-0.34375 -0.109375 -0.953125 -0.109375q-1.125 0 -1.875 0.65625q-0.75 0.640625 -1.25 1.875l0 7.734375l-2.140625 0zm14.593948 -12.34375q1.328125 0 2.40625 0.453125q1.078125 0.4375 1.828125 1.25q0.75 0.8125 1.140625 1.96875q0.40625 1.15625 0.40625 2.59375q0 1.4375 -0.40625 2.59375q-0.390625 1.140625 -1.140625 1.96875q-0.75 0.8125 -1.828125 1.25q-1.078125 0.4375 -2.40625 0.4375q-1.328125 0 -2.40625 -0.4375q-1.078125 -0.4375 -1.828125 -1.25q-0.75 -0.828125 -1.171875 -1.96875q-0.40625 -1.15625 -0.40625 -2.59375q0 -1.4375 0.40625 -2.59375q0.421875 -1.15625 1.171875 -1.96875q0.75 -0.8125 1.828125 -1.25q1.078125 -0.453125 2.40625 -0.453125zm0 10.84375q1.796875 0 2.6875 -1.203125q0.890625 -1.203125 0.890625 -3.375q0 -2.171875 -0.890625 -3.375q-0.890625 -1.21875 -2.6875 -1.21875q-0.90625 0 -1.578125 0.3125q-0.671875 0.3125 -1.125 0.90625q-0.453125 0.578125 -0.671875 1.4375q-0.21875 0.859375 -0.21875 1.9375q0 1.09375 0.21875 1.953125q0.21875 0.84375 0.671875 1.421875q0.453125 0.578125 1.125 0.890625q0.671875 0.3125 1.578125 0.3125zm8.422226 5.609375l0 -16.265625l1.28125 0q0.453125 0 0.5625 0.4375l0.1875 1.453125q0.78125 -0.953125 1.78125 -1.53125q1.0 -0.578125 2.3125 -0.578125q1.046875 0 1.890625 0.40625q0.859375 0.40625 1.453125 1.1875q0.59375 0.78125 0.921875 1.953125q0.328125 1.15625 0.328125 2.671875q0 1.34375 -0.359375 2.5q-0.359375 1.15625 -1.03125 2.015625q-0.671875 0.84375 -1.65625 1.328125q-0.96875 0.484375 -2.203125 0.484375q-1.125 0 -1.921875 -0.375q-0.796875 -0.375 -1.40625 -1.0625l0 5.375l-2.140625 0zm5.40625 -14.75q-1.03125 0 -1.828125 0.484375q-0.78125 0.46875 -1.4375 1.34375l0 5.890625q0.578125 0.78125 1.28125 1.109375q0.703125 0.328125 1.578125 0.328125q1.6875 0 2.59375 -1.203125q0.921875 -1.21875 0.921875 -3.46875q0 -1.1875 -0.21875 -2.03125q-0.203125 -0.859375 -0.609375 -1.40625q-0.390625 -0.546875 -0.96875 -0.796875q-0.578125 -0.25 -1.3125 -0.25zm14.810593 0.484375q-0.15625 0.265625 -0.453125 0.265625q-0.171875 0 -0.40625 -0.125q-0.234375 -0.140625 -0.5625 -0.296875q-0.328125 -0.15625 -0.78125 -0.296875q-0.453125 -0.140625 -1.078125 -0.140625q-0.546875 0 -0.984375 0.140625q-0.421875 0.140625 -0.734375 0.375q-0.296875 0.234375 -0.46875 0.5625q-0.15625 0.3125 -0.15625 0.6875q0 0.46875 0.265625 0.78125q0.28125 0.3125 0.71875 0.546875q0.453125 0.21875 1.015625 0.390625q0.5625 0.171875 1.15625 0.375q0.59375 0.1875 1.15625 0.4375q0.5625 0.234375 1.0 0.59375q0.453125 0.359375 0.71875 0.890625q0.265625 0.515625 0.265625 1.25q0 0.84375 -0.296875 1.5625q-0.296875 0.703125 -0.890625 1.234375q-0.578125 0.515625 -1.4375 0.8125q-0.84375 0.296875 -1.96875 0.296875q-1.265625 0 -2.296875 -0.40625q-1.03125 -0.421875 -1.75 -1.0625l0.5 -0.8125q0.09375 -0.15625 0.21875 -0.234375q0.140625 -0.09375 0.359375 -0.09375q0.21875 0 0.453125 0.171875q0.234375 0.15625 0.578125 0.359375q0.34375 0.203125 0.828125 0.375q0.484375 0.171875 1.21875 0.171875q0.625 0 1.09375 -0.15625q0.46875 -0.171875 0.78125 -0.4375q0.3125 -0.28125 0.453125 -0.640625q0.15625 -0.359375 0.15625 -0.765625q0 -0.515625 -0.265625 -0.84375q-0.265625 -0.328125 -0.71875 -0.5625q-0.4375 -0.234375 -1.015625 -0.40625q-0.5625 -0.171875 -1.15625 -0.359375q-0.59375 -0.203125 -1.171875 -0.4375q-0.5625 -0.25 -1.015625 -0.625q-0.4375 -0.375 -0.71875 -0.921875q-0.265625 -0.546875 -0.265625 -1.3125q0 -0.703125 0.28125 -1.34375q0.296875 -0.640625 0.84375 -1.125q0.5625 -0.484375 1.359375 -0.765625q0.8125 -0.296875 1.84375 -0.296875q1.203125 0 2.15625 0.375q0.953125 0.375 1.640625 1.03125l-0.46875 0.78125z" fill-rule="nonzero"></path><path fill="#cc0000" d="m136.92401 624.5651l9.59375 0l0 1.5625l-9.59375 0l0 -1.5625z" fill-rule="nonzero"></path><path fill="#cfe2f3" d="m121.27821 483.93835l208.37794 0l0 92.75592l-208.37794 0z" fill-rule="nonzero"></path><path stroke="#9fc5e8" stroke-width="2.0" stroke-linejoin="round" stroke-linecap="butt" d="m121.27821 483.93835l208.37794 0l0 92.75592l-208.37794 0z" fill-rule="nonzero"></path><path fill="#6aa84f" d="m141.16884 509.84067q-0.109375 0.1875 -0.234375 0.28125q-0.109375 0.09375 -0.296875 0.09375q-0.203125 0 -0.484375 -0.203125q-0.265625 -0.21875 -0.6875 -0.453125q-0.40625 -0.25 -0.984375 -0.453125q-0.578125 -0.203125 -1.40625 -0.203125q-0.78125 0 -1.390625 0.21875q-0.59375 0.203125 -1.0 0.5625q-0.390625 0.359375 -0.609375 0.84375q-0.203125 0.484375 -0.203125 1.046875q0 0.7187805 0.359375 1.2031555q0.359375 0.46875 0.9375 0.8125q0.578125 0.328125 1.3125 0.578125q0.75 0.234375 1.515625 0.5q0.78125 0.265625 1.515625 0.59375q0.734375 0.328125 1.3125 0.84375q0.59375 0.5 0.9375 1.234375q0.359375 0.734375 0.359375 1.796875q0 1.125 -0.390625 2.125q-0.375 0.984375 -1.125 1.71875q-0.734375 0.734375 -1.8125 1.15625q-1.0625 0.40625 -2.4375 0.40625q-1.65625 0 -3.03125 -0.59375q-1.375 -0.609375 -2.34375 -1.640625l0.671875 -1.109375q0.09375 -0.125 0.21875 -0.21875q0.140625 -0.09375 0.3125 -0.09375q0.25 0 0.578125 0.28125q0.328125 0.265625 0.8125 0.59375q0.484375 0.3125 1.171875 0.59375q0.6875 0.265625 1.6875 0.265625q0.828125 0 1.46875 -0.234375q0.65625 -0.234375 1.109375 -0.640625q0.453125 -0.421875 0.6875 -0.984375q0.234375 -0.578125 0.234375 -1.296875q0 -0.765625 -0.359375 -1.265625q-0.34375 -0.5 -0.921875 -0.828125q-0.578125 -0.34375 -1.3125 -0.578125q-0.734375 -0.234375 -1.515625 -0.484375q-0.765625 -0.25 -1.515625 -0.5625q-0.734375 -0.328125 -1.3125 -0.84375q-0.578125 -0.515625 -0.9375 -1.28125q-0.34375 -0.78125 -0.34375 -1.9219055q0 -0.921875 0.34375 -1.765625q0.359375 -0.859375 1.03125 -1.515625q0.671875 -0.65625 1.65625 -1.046875q1.0 -0.40625 2.28125 -0.40625q1.453125 0 2.640625 0.46875q1.1875 0.453125 2.0625 1.3125l-0.5625 1.09375zm7.266968 14.7031555q-1.4375 0 -2.21875 -0.796875q-0.765625 -0.8125 -0.765625 -2.3125l0 -7.453125l-1.46875 0q-0.1875 0 -0.328125 -0.109375q-0.125 -0.109375 -0.125 -0.359375l0 -0.84375l1.984375 -0.25l0.5 -3.7656555q0.015625 -0.171875 0.140625 -0.28125q0.140625 -0.125 0.34375 -0.125l1.078125 0l0 4.1875305l3.484375 0l0 1.546875l-3.484375 0l0 7.296875q0 0.78125 0.375 1.15625q0.375 0.359375 0.96875 0.359375q0.328125 0 0.578125 -0.078125q0.25 -0.09375 0.421875 -0.203125q0.1875 -0.109375 0.3125 -0.203125q0.125 -0.09375 0.21875 -0.09375q0.171875 0 0.296875 0.203125l0.625 1.03125q-0.546875 0.515625 -1.328125 0.8125q-0.78125 0.28125 -1.609375 0.28125zm14.202057 -0.1875l-0.953125 0q-0.3125 0 -0.515625 -0.09375q-0.1875 -0.09375 -0.25 -0.40625l-0.234375 -1.125q-0.484375 0.421875 -0.9375 0.765625q-0.453125 0.34375 -0.953125 0.578125q-0.5 0.234375 -1.078125 0.34375q-0.5625 0.125 -1.265625 0.125q-0.703125 0 -1.328125 -0.1875q-0.609375 -0.203125 -1.078125 -0.59375q-0.453125 -0.40625 -0.71875 -1.0q-0.265625 -0.609375 -0.265625 -1.4375q0 -0.71875 0.390625 -1.390625q0.390625 -0.671875 1.265625 -1.1875q0.890625 -0.515625 2.3125 -0.84375q1.4375 -0.328125 3.5 -0.375l0 -0.953125q0 -1.40625 -0.609375 -2.125q-0.59375 -0.734375 -1.78125 -0.734375q-0.78125 0 -1.328125 0.203125q-0.53125 0.1875 -0.921875 0.4375q-0.390625 0.25 -0.671875 0.453125q-0.28125 0.1875 -0.546875 0.1875q-0.21875 0 -0.390625 -0.109375q-0.15625 -0.125 -0.25 -0.28125l-0.390625 -0.6875q1.015625 -0.96875 2.171875 -1.453125q1.171875 -0.48440552 2.578125 -0.48440552q1.03125 0 1.8125 0.34378052q0.796875 0.328125 1.328125 0.9375q0.546875 0.59375 0.828125 1.453125q0.28125 0.84375 0.28125 1.859375l0 7.78125zm-5.546875 -1.3125q0.5625 0 1.03125 -0.109375q0.46875 -0.109375 0.875 -0.3125q0.421875 -0.21875 0.796875 -0.515625q0.375 -0.3125 0.734375 -0.6875l0 -2.53125q-1.46875 0.046875 -2.5 0.234375q-1.03125 0.1875 -1.6875 0.484375q-0.640625 0.296875 -0.9375 0.703125q-0.296875 0.40625 -0.296875 0.921875q0 0.46875 0.15625 0.828125q0.15625 0.34375 0.421875 0.5625q0.265625 0.21875 0.625 0.328125q0.359375 0.09375 0.78125 0.09375zm12.464966 1.5q-1.4375 0 -2.21875 -0.796875q-0.765625 -0.8125 -0.765625 -2.3125l0 -7.453125l-1.46875 0q-0.1875 0 -0.328125 -0.109375q-0.125 -0.109375 -0.125 -0.359375l0 -0.84375l1.984375 -0.25l0.5 -3.7656555q0.015625 -0.171875 0.140625 -0.28125q0.140625 -0.125 0.34375 -0.125l1.078125 0l0 4.1875305l3.484375 0l0 1.546875l-3.484375 0l0 7.296875q0 0.78125 0.375 1.15625q0.375 0.359375 0.96875 0.359375q0.328125 0 0.578125 -0.078125q0.25 -0.09375 0.421875 -0.203125q0.1875 -0.109375 0.3125 -0.203125q0.125 -0.09375 0.21875 -0.09375q0.171875 0 0.296875 0.203125l0.625 1.03125q-0.546875 0.515625 -1.328125 0.8125q-0.78125 0.28125 -1.609375 0.28125zm10.077057 -12.53125q1.09375 0 2.015625 0.375q0.921875 0.359375 1.59375 1.046875q0.671875 0.6875 1.046875 1.703125q0.390625 1.015625 0.390625 2.3125q0 0.5 -0.109375 0.671875q-0.109375 0.15625 -0.40625 0.15625l-8.09375 0q0.03125 1.15625 0.3125 2.015625q0.28125 0.84375 0.78125 1.421875q0.515625 0.5625 1.203125 0.84375q0.703125 0.28125 1.5625 0.28125q0.8125 0 1.390625 -0.1875q0.578125 -0.1875 1.0 -0.390625q0.421875 -0.21875 0.703125 -0.40625q0.28125 -0.1875 0.484375 -0.1875q0.265625 0 0.40625 0.203125l0.609375 0.78125q-0.40625 0.484375 -0.953125 0.84375q-0.546875 0.34375 -1.1875 0.578125q-0.625 0.21875 -1.296875 0.328125q-0.671875 0.125 -1.328125 0.125q-1.265625 0 -2.328125 -0.421875q-1.0625 -0.4375 -1.84375 -1.25q-0.765625 -0.828125 -1.203125 -2.03125q-0.421875 -1.21875 -0.421875 -2.796875q0 -1.265625 0.390625 -2.359375q0.390625 -1.109375 1.109375 -1.921875q0.734375 -0.8125 1.796875 -1.265625q1.0625 -0.46875 2.375 -0.46875zm0.046875 1.5625q-1.546875 0 -2.4375 0.90625q-0.890625 0.890625 -1.09375 2.46875l6.609375 0q0 -0.734375 -0.203125 -1.359375q-0.203125 -0.625 -0.609375 -1.0625q-0.390625 -0.453125 -0.96875 -0.703125q-0.5625 -0.25 -1.296875 -0.25z" fill-rule="nonzero"></path><path fill="#6aa84f" d="m134.40321 541.2001l0 12.15625l-2.140625 0l0 -12.15625l2.140625 0zm0.484375 -3.8125q0 0.3125 -0.125 0.578125q-0.125 0.265625 -0.34375 0.484375q-0.203125 0.203125 -0.484375 0.328125q-0.265625 0.125 -0.578125 0.125q-0.3125 0 -0.59375 -0.125q-0.265625 -0.125 -0.484375 -0.328125q-0.203125 -0.21875 -0.328125 -0.484375q-0.109375 -0.265625 -0.109375 -0.578125q0 -0.3125 0.109375 -0.59375q0.125 -0.28125 0.328125 -0.484375q0.21875 -0.21875 0.484375 -0.34375q0.28125 -0.125 0.59375 -0.125q0.3125 0 0.578125 0.125q0.28125 0.125 0.484375 0.34375q0.21875 0.203125 0.34375 0.484375q0.125 0.28125 0.125 0.59375zm10.253418 5.8125q-0.15625 0.265625 -0.453125 0.265625q-0.171875 0 -0.40625 -0.125q-0.234375 -0.140625 -0.5625 -0.296875q-0.328125 -0.15625 -0.78125 -0.296875q-0.453125 -0.140625 -1.078125 -0.140625q-0.546875 0 -0.984375 0.140625q-0.421875 0.140625 -0.734375 0.375q-0.296875 0.234375 -0.46875 0.5625q-0.15625 0.3125 -0.15625 0.6875q0 0.46875 0.265625 0.78125q0.28125 0.3125 0.71875 0.546875q0.453125 0.21875 1.015625 0.390625q0.5625 0.171875 1.15625 0.375q0.59375 0.1875 1.15625 0.4375q0.5625 0.234375 1.0 0.59375q0.453125 0.359375 0.71875 0.890625q0.265625 0.515625 0.265625 1.25q0 0.84375 -0.296875 1.5625q-0.296875 0.703125 -0.890625 1.234375q-0.578125 0.515625 -1.4375 0.8125q-0.84375 0.296875 -1.96875 0.296875q-1.265625 0 -2.296875 -0.40625q-1.03125 -0.421875 -1.75 -1.0625l0.5 -0.8125q0.09375 -0.15625 0.21875 -0.234375q0.140625 -0.09375 0.359375 -0.09375q0.21875 0 0.453125 0.171875q0.234375 0.15625 0.578125 0.359375q0.34375 0.203125 0.828125 0.375q0.484375 0.171875 1.21875 0.171875q0.625 0 1.09375 -0.15625q0.46875 -0.171875 0.78125 -0.4375q0.3125 -0.28125 0.453125 -0.640625q0.15625 -0.359375 0.15625 -0.765625q0 -0.515625 -0.265625 -0.84375q-0.265625 -0.328125 -0.71875 -0.5625q-0.4375 -0.234375 -1.015625 -0.40625q-0.5625 -0.171875 -1.15625 -0.359375q-0.59375 -0.203125 -1.171875 -0.4375q-0.5625 -0.25 -1.015625 -0.625q-0.4375 -0.375 -0.71875 -0.921875q-0.265625 -0.546875 -0.265625 -1.3125q0 -0.703125 0.28125 -1.34375q0.296875 -0.640625 0.84375 -1.125q0.5625 -0.484375 1.359375 -0.765625q0.8125 -0.296875 1.84375 -0.296875q1.203125 0 2.15625 0.375q0.953125 0.375 1.640625 1.03125l-0.46875 0.78125zm19.759827 1.5625q0 1.9375 -0.609375 3.546875q-0.609375 1.609375 -1.734375 2.78125q-1.109375 1.15625 -2.6875 1.8125q-1.5625 0.640625 -3.453125 0.640625q-1.890625 0 -3.453125 -0.640625q-1.5625 -0.65625 -2.6875 -1.8125q-1.109375 -1.171875 -1.71875 -2.78125q-0.609375 -1.609375 -0.609375 -3.546875q0 -1.9375 0.609375 -3.546875q0.609375 -1.609375 1.71875 -2.78125q1.125 -1.171875 2.6875 -1.8125q1.5625 -0.65625 3.453125 -0.65625q1.890625 0 3.453125 0.65625q1.578125 0.640625 2.6875 1.8125q1.125 1.171875 1.734375 2.78125q0.609375 1.609375 0.609375 3.546875zm-2.390625 0q0 -1.578125 -0.4375 -2.84375q-0.421875 -1.265625 -1.21875 -2.125q-0.796875 -0.875 -1.921875 -1.34375q-1.125 -0.46875 -2.515625 -0.46875q-1.375 0 -2.515625 0.46875q-1.125 0.46875 -1.921875 1.34375q-0.796875 0.859375 -1.234375 2.125q-0.421875 1.265625 -0.421875 2.84375q0 1.578125 0.421875 2.84375q0.4375 1.25 1.234375 2.125q0.796875 0.859375 1.921875 1.328125q1.140625 0.453125 2.515625 0.453125q1.390625 0 2.515625 -0.453125q1.125 -0.46875 1.921875 -1.328125q0.796875 -0.875 1.21875 -2.125q0.4375 -1.265625 0.4375 -2.84375zm5.230255 12.703125l0 -16.265625l1.28125 0q0.453125 0 0.5625 0.4375l0.1875 1.453125q0.78125 -0.953125 1.78125 -1.53125q1.0 -0.578125 2.3125 -0.578125q1.046875 0 1.890625 0.40625q0.859375 0.40625 1.453125 1.1875q0.59375 0.78125 0.921875 1.953125q0.328125 1.15625 0.328125 2.671875q0 1.34375 -0.359375 2.5q-0.359375 1.15625 -1.03125 2.015625q-0.671875 0.84375 -1.65625 1.328125q-0.96875 0.484375 -2.203125 0.484375q-1.125 0 -1.921875 -0.375q-0.796875 -0.375 -1.40625 -1.0625l0 5.375l-2.140625 0zm5.40625 -14.75q-1.03125 0 -1.828125 0.484375q-0.78125 0.46875 -1.4375 1.34375l0 5.890625q0.578125 0.78125 1.28125 1.109375q0.703125 0.328125 1.578125 0.328125q1.6875 0 2.59375 -1.203125q0.921875 -1.21875 0.921875 -3.46875q0 -1.1875 -0.21875 -2.03125q-0.203125 -0.859375 -0.609375 -1.40625q-0.390625 -0.546875 -0.96875 -0.796875q-0.578125 -0.25 -1.3125 -0.25zm12.654343 -1.703125q1.09375 0 2.015625 0.375q0.921875 0.359375 1.59375 1.046875q0.671875 0.6875 1.046875 1.703125q0.390625 1.015625 0.390625 2.3125q0 0.5 -0.109375 0.671875q-0.109375 0.15625 -0.40625 0.15625l-8.09375 0q0.03125 1.15625 0.3125 2.015625q0.28125 0.84375 0.78125 1.421875q0.515625 0.5625 1.203125 0.84375q0.703125 0.28125 1.5625 0.28125q0.8125 0 1.390625 -0.1875q0.578125 -0.1875 1.0 -0.390625q0.421875 -0.21875 0.703125 -0.40625q0.28125 -0.1875 0.484375 -0.1875q0.265625 0 0.40625 0.203125l0.609375 0.78125q-0.40625 0.484375 -0.953125 0.84375q-0.546875 0.34375 -1.1875 0.578125q-0.625 0.21875 -1.296875 0.328125q-0.671875 0.125 -1.328125 0.125q-1.265625 0 -2.328125 -0.421875q-1.0625 -0.4375 -1.84375 -1.25q-0.765625 -0.828125 -1.203125 -2.03125q-0.421875 -1.21875 -0.421875 -2.796875q0 -1.265625 0.390625 -2.359375q0.390625 -1.109375 1.109375 -1.921875q0.734375 -0.8125 1.796875 -1.265625q1.0625 -0.46875 2.375 -0.46875zm0.046875 1.5625q-1.546875 0 -2.4375 0.90625q-0.890625 0.890625 -1.09375 2.46875l6.609375 0q0 -0.734375 -0.203125 -1.359375q-0.203125 -0.625 -0.609375 -1.0625q-0.390625 -0.453125 -0.96875 -0.703125q-0.5625 -0.25 -1.296875 -0.25zm7.7167206 10.78125l0 -12.15625l1.28125 0q0.453125 0 0.5625 0.4375l0.171875 1.328125q0.796875 -0.875 1.765625 -1.40625q0.984375 -0.546875 2.265625 -0.546875q1.0 0 1.75 0.328125q0.765625 0.328125 1.28125 0.9375q0.515625 0.609375 0.78125 1.46875q0.265625 0.84375 0.265625 1.875l0 7.734375l-2.140625 0l0 -7.734375q0 -1.390625 -0.640625 -2.140625q-0.625 -0.765625 -1.921875 -0.765625q-0.9375 0 -1.765625 0.453125q-0.828125 0.453125 -1.515625 1.234375l0 8.953125l-2.140625 0zm13.125351 -1.3125q0 -0.3125 0.109375 -0.59375q0.125 -0.28125 0.3125 -0.484375q0.203125 -0.203125 0.484375 -0.3125q0.28125 -0.125 0.59375 -0.125q0.3125 0 0.578125 0.125q0.28125 0.109375 0.484375 0.3125q0.203125 0.203125 0.3125 0.484375q0.125 0.28125 0.125 0.59375q0 0.3125 -0.125 0.59375q-0.109375 0.265625 -0.3125 0.46875q-0.203125 0.203125 -0.484375 0.3125q-0.265625 0.125 -0.578125 0.125q-0.3125 0 -0.59375 -0.125q-0.28125 -0.109375 -0.484375 -0.3125q-0.1875 -0.203125 -0.3125 -0.46875q-0.109375 -0.28125 -0.109375 -0.59375zm0 -9.0q0 -0.3125 0.109375 -0.59375q0.125 -0.28125 0.3125 -0.484375q0.203125 -0.203125 0.484375 -0.3125q0.28125 -0.125 0.59375 -0.125q0.3125 0 0.578125 0.125q0.28125 0.109375 0.484375 0.3125q0.203125 0.203125 0.3125 0.484375q0.125 0.28125 0.125 0.59375q0 0.3125 -0.125 0.59375q-0.109375 0.265625 -0.3125 0.46875q-0.203125 0.203125 -0.484375 0.328125q-0.265625 0.109375 -0.578125 0.109375q-0.3125 0 -0.59375 -0.109375q-0.28125 -0.125 -0.484375 -0.328125q-0.1875 -0.203125 -0.3125 -0.46875q-0.109375 -0.28125 -0.109375 -0.59375zm14.586334 10.5q-1.4375 0 -2.21875 -0.796875q-0.765625 -0.8125 -0.765625 -2.3125l0 -7.453125l-1.46875 0q-0.1875 0 -0.328125 -0.109375q-0.125 -0.109375 -0.125 -0.359375l0 -0.84375l1.984375 -0.25l0.5 -3.765625q0.015625 -0.171875 0.140625 -0.28125q0.140625 -0.125 0.34375 -0.125l1.078125 0l0 4.1875l3.484375 0l0 1.546875l-3.484375 0l0 7.296875q0 0.78125 0.375 1.15625q0.375 0.359375 0.96875 0.359375q0.328125 0 0.578125 -0.078125q0.25 -0.09375 0.421875 -0.203125q0.1875 -0.109375 0.3125 -0.203125q0.125 -0.09375 0.21875 -0.09375q0.171875 0 0.296875 0.203125l0.625 1.03125q-0.546875 0.515625 -1.328125 0.8125q-0.78125 0.28125 -1.609375 0.28125zm5.264557 -0.1875l0 -12.15625l1.21875 0q0.359375 0 0.484375 0.140625q0.140625 0.125 0.1875 0.453125l0.140625 1.890625q0.625 -1.265625 1.53125 -1.984375q0.921875 -0.71875 2.15625 -0.71875q0.515625 0 0.921875 0.125q0.40625 0.109375 0.75 0.3125l-0.265625 1.59375q-0.09375 0.296875 -0.375 0.296875q-0.171875 0 -0.53125 -0.109375q-0.34375 -0.109375 -0.953125 -0.109375q-1.125 0 -1.875 0.65625q-0.75 0.640625 -1.25 1.875l0 7.734375l-2.140625 0zm11.515823 -12.15625l0 7.75q0 1.375 0.640625 2.140625q0.640625 0.75 1.921875 0.75q0.9375 0 1.765625 -0.4375q0.828125 -0.453125 1.515625 -1.234375l0 -8.96875l2.140625 0l0 12.15625l-1.265625 0q-0.453125 0 -0.578125 -0.4375l-0.171875 -1.3125q-0.796875 0.875 -1.78125 1.40625q-0.984375 0.53125 -2.25 0.53125q-1.0 0 -1.765625 -0.328125q-0.75 -0.328125 -1.265625 -0.921875q-0.515625 -0.609375 -0.78125 -1.453125q-0.25 -0.859375 -0.25 -1.890625l0 -7.75l2.125 0zm16.31285 -0.1875q1.09375 0 2.015625 0.375q0.921875 0.359375 1.59375 1.046875q0.671875 0.6875 1.046875 1.703125q0.390625 1.015625 0.390625 2.3125q0 0.5 -0.109375 0.671875q-0.109375 0.15625 -0.40625 0.15625l-8.09375 0q0.03125 1.15625 0.3125 2.015625q0.28125 0.84375 0.78125 1.421875q0.515625 0.5625 1.203125 0.84375q0.703125 0.28125 1.5625 0.28125q0.8125 0 1.390625 -0.1875q0.578125 -0.1875 1.0 -0.390625q0.421875 -0.21875 0.703125 -0.40625q0.28125 -0.1875 0.484375 -0.1875q0.265625 0 0.40625 0.203125l0.609375 0.78125q-0.40625 0.484375 -0.953125 0.84375q-0.546875 0.34375 -1.1875 0.578125q-0.625 0.21875 -1.296875 0.328125q-0.671875 0.125 -1.328125 0.125q-1.265625 0 -2.328125 -0.421875q-1.0625 -0.4375 -1.84375 -1.25q-0.765625 -0.828125 -1.203125 -2.03125q-0.421875 -1.21875 -0.421875 -2.796875q0 -1.265625 0.390625 -2.359375q0.390625 -1.109375 1.109375 -1.921875q0.734375 -0.8125 1.796875 -1.265625q1.0625 -0.46875 2.375 -0.46875zm0.046875 1.5625q-1.546875 0 -2.4375 0.90625q-0.890625 0.890625 -1.09375 2.46875l6.609375 0q0 -0.734375 -0.203125 -1.359375q-0.203125 -0.625 -0.609375 -1.0625q-0.390625 -0.453125 -0.96875 -0.703125q-0.5625 -0.25 -1.296875 -0.25z" fill-rule="nonzero"></path><path fill="#000000" fill-opacity="0.0" d="m475.95538 294.58923l-250.48819 130.83466" fill-rule="nonzero"></path><path stroke="#000000" stroke-width="2.0" stroke-linejoin="round" stroke-linecap="butt" d="m475.95538 294.58923l-239.85172 125.27899" fill-rule="evenodd"></path><path fill="#000000" stroke="#000000" stroke-width="2.0" stroke-linecap="butt" d="m234.57428 416.94016l-6.515503 7.1300964l9.57431 -1.2738953z" fill-rule="evenodd"></path><path fill="#cfe2f3" d="m627.5407 436.85434l0 0c0 -6.3201294 5.123413 -11.443573 11.4435425 -11.443573l188.29395 0c3.0350342 0 5.9457397 1.205658 8.091858 3.3517456c2.1460571 2.1460876 3.3517456 5.056793 3.3517456 8.091827l0 45.77426c0 6.3201294 -5.123474 11.443573 -11.4436035 11.443573l-188.29395 0c-6.3201294 0 -11.4435425 -5.1234436 -11.4435425 -11.443573z" fill-rule="nonzero"></path><path stroke="#9fc5e8" stroke-width="2.0" stroke-linejoin="round" stroke-linecap="butt" d="m627.5407 436.85434l0 0c0 -6.3201294 5.123413 -11.443573 11.4435425 -11.443573l188.29395 0c3.0350342 0 5.9457397 1.205658 8.091858 3.3517456c2.1460571 2.1460876 3.3517456 5.056793 3.3517456 8.091827l0 45.77426c0 6.3201294 -5.123474 11.443573 -11.4436035 11.443573l-188.29395 0c-6.3201294 0 -11.4435425 -5.1234436 -11.4435425 -11.443573z" fill-rule="nonzero"></path><path fill="#000000" d="m685.1859 464.7346q0.203125 0 0.359375 0.15625l0.90625 0.984375q-1.0625 1.234375 -2.5625 1.921875q-1.5 0.671875 -3.625 0.671875q-1.859375 0 -3.375 -0.640625q-1.515625 -0.640625 -2.59375 -1.796875q-1.0625 -1.15625 -1.65625 -2.765625q-0.578125 -1.625 -0.578125 -3.578125q0 -1.9375 0.625 -3.5625q0.640625 -1.625 1.78125 -2.78125q1.140625 -1.171875 2.71875 -1.8125q1.59375 -0.640625 3.515625 -0.640625q1.890625 0 3.265625 0.59375q1.375 0.578125 2.453125 1.59375l-0.765625 1.0625q-0.078125 0.125 -0.1875 0.203125q-0.109375 0.078125 -0.3125 0.078125q-0.15625 0 -0.328125 -0.109375q-0.171875 -0.125 -0.421875 -0.28125q-0.234375 -0.171875 -0.5625 -0.359375q-0.3125 -0.203125 -0.765625 -0.359375q-0.4375 -0.171875 -1.03125 -0.28125q-0.59375 -0.125 -1.359375 -0.125q-1.375 0 -2.53125 0.484375q-1.140625 0.46875 -1.96875 1.34375q-0.828125 0.875 -1.296875 2.140625q-0.453125 1.25 -0.453125 2.8125q0 1.609375 0.453125 2.875q0.46875 1.25 1.265625 2.125q0.796875 0.875 1.890625 1.328125q1.09375 0.453125 2.359375 0.453125q0.765625 0 1.375 -0.078125q0.609375 -0.09375 1.125 -0.28125q0.53125 -0.203125 0.984375 -0.5q0.453125 -0.296875 0.90625 -0.703125q0.203125 -0.171875 0.390625 -0.171875zm8.9088745 -8.796875q1.328125 0 2.40625 0.453125q1.078125 0.4375 1.828125 1.25q0.75 0.8125 1.140625 1.96875q0.40625 1.15625 0.40625 2.59375q0 1.4375 -0.40625 2.59375q-0.390625 1.140625 -1.140625 1.96875q-0.75 0.8125 -1.828125 1.25q-1.078125 0.4375 -2.40625 0.4375q-1.328125 0 -2.40625 -0.4375q-1.078125 -0.4375 -1.828125 -1.25q-0.75 -0.828125 -1.171875 -1.96875q-0.40625 -1.15625 -0.40625 -2.59375q0 -1.4375 0.40625 -2.59375q0.421875 -1.15625 1.171875 -1.96875q0.75 -0.8125 1.828125 -1.25q1.078125 -0.453125 2.40625 -0.453125zm0 10.84375q1.796875 0 2.6875 -1.203125q0.890625 -1.203125 0.890625 -3.375q0 -2.171875 -0.890625 -3.375q-0.890625 -1.21875 -2.6875 -1.21875q-0.90625 0 -1.578125 0.3125q-0.671875 0.3125 -1.125 0.90625q-0.453125 0.578125 -0.671875 1.4375q-0.21875 0.859375 -0.21875 1.9375q0 1.09375 0.21875 1.953125q0.21875 0.84375 0.671875 1.421875q0.453125 0.578125 1.125 0.890625q0.671875 0.3125 1.578125 0.3125zm8.422241 1.5l0 -12.15625l1.28125 0q0.453125 0 0.5625 0.4375l0.15625 1.25q0.671875 -0.828125 1.5 -1.34375q0.84375 -0.53125 1.953125 -0.53125q1.234375 0 1.984375 0.6875q0.765625 0.671875 1.109375 1.84375q0.25 -0.65625 0.65625 -1.140625q0.421875 -0.484375 0.9375 -0.796875q0.515625 -0.3125 1.09375 -0.453125q0.59375 -0.140625 1.1875 -0.140625q0.953125 0 1.703125 0.3125q0.75 0.296875 1.265625 0.890625q0.53125 0.578125 0.8125 1.4375q0.28125 0.859375 0.28125 1.96875l0 7.734375l-2.140625 0l0 -7.734375q0 -1.4375 -0.625 -2.171875q-0.625 -0.734375 -1.8125 -0.734375q-0.53125 0 -1.0 0.1875q-0.46875 0.1875 -0.84375 0.546875q-0.359375 0.359375 -0.5625 0.90625q-0.203125 0.546875 -0.203125 1.265625l0 7.734375l-2.140625 0l0 -7.734375q0 -1.46875 -0.59375 -2.1875q-0.578125 -0.71875 -1.71875 -0.71875q-0.78125 0 -1.46875 0.421875q-0.671875 0.421875 -1.234375 1.15625l0 9.0625l-2.140625 0zm19.704102 4.109375l0 -16.265625l1.28125 0q0.453125 0 0.5625 0.4375l0.1875 1.453125q0.78125 -0.953125 1.78125 -1.53125q1.0 -0.578125 2.3125 -0.578125q1.046875 0 1.890625 0.40625q0.859375 0.40625 1.453125 1.1875q0.59375 0.78125 0.921875 1.953125q0.328125 1.15625 0.328125 2.671875q0 1.34375 -0.359375 2.5q-0.359375 1.15625 -1.03125 2.015625q-0.671875 0.84375 -1.65625 1.328125q-0.96875 0.484375 -2.203125 0.484375q-1.125 0 -1.921875 -0.375q-0.796875 -0.375 -1.40625 -1.0625l0 5.375l-2.140625 0zm5.40625 -14.75q-1.03125 0 -1.828125 0.484375q-0.78125 0.46875 -1.4375 1.34375l0 5.890625q0.578125 0.78125 1.28125 1.109375q0.703125 0.328125 1.578125 0.328125q1.6875 0 2.59375 -1.203125q0.921875 -1.21875 0.921875 -3.46875q0 -1.1875 -0.21875 -2.03125q-0.203125 -0.859375 -0.609375 -1.40625q-0.390625 -0.546875 -0.96875 -0.796875q-0.578125 -0.25 -1.3125 -0.25zm12.763733 -1.703125q1.328125 0 2.40625 0.453125q1.078125 0.4375 1.828125 1.25q0.75 0.8125 1.140625 1.96875q0.40625 1.15625 0.40625 2.59375q0 1.4375 -0.40625 2.59375q-0.390625 1.140625 -1.140625 1.96875q-0.75 0.8125 -1.828125 1.25q-1.078125 0.4375 -2.40625 0.4375q-1.328125 0 -2.40625 -0.4375q-1.078125 -0.4375 -1.828125 -1.25q-0.75 -0.828125 -1.171875 -1.96875q-0.40625 -1.15625 -0.40625 -2.59375q0 -1.4375 0.40625 -2.59375q0.421875 -1.15625 1.171875 -1.96875q0.75 -0.8125 1.828125 -1.25q1.078125 -0.453125 2.40625 -0.453125zm0 10.84375q1.796875 0 2.6875 -1.203125q0.890625 -1.203125 0.890625 -3.375q0 -2.171875 -0.890625 -3.375q-0.890625 -1.21875 -2.6875 -1.21875q-0.90625 0 -1.578125 0.3125q-0.671875 0.3125 -1.125 0.90625q-0.453125 0.578125 -0.671875 1.4375q-0.21875 0.859375 -0.21875 1.9375q0 1.09375 0.21875 1.953125q0.21875 0.84375 0.671875 1.421875q0.453125 0.578125 1.125 0.890625q0.671875 0.3125 1.578125 0.3125zm8.422241 1.5l0 -12.15625l1.28125 0q0.453125 0 0.5625 0.4375l0.171875 1.328125q0.796875 -0.875 1.765625 -1.40625q0.984375 -0.546875 2.265625 -0.546875q1.0 0 1.75 0.328125q0.765625 0.328125 1.28125 0.9375q0.515625 0.609375 0.78125 1.46875q0.26556396 0.84375 0.26556396 1.875l0 7.734375l-2.140564 0l0 -7.734375q0 -1.390625 -0.640625 -2.140625q-0.625 -0.765625 -1.921875 -0.765625q-0.9375 0 -1.765625 0.453125q-0.828125 0.453125 -1.515625 1.234375l0 8.953125l-2.140625 0zm18.156555 -12.34375q1.09375 0 2.015625 0.375q0.921875 0.359375 1.59375 1.046875q0.671875 0.6875 1.046875 1.703125q0.390625 1.015625 0.390625 2.3125q0 0.5 -0.109375 0.671875q-0.109375 0.15625 -0.40625 0.15625l-8.09375 0q0.03125 1.15625 0.3125 2.015625q0.28125 0.84375 0.78125 1.421875q0.515625 0.5625 1.203125 0.84375q0.703125 0.28125 1.5625 0.28125q0.8125 0 1.390625 -0.1875q0.578125 -0.1875 1.0 -0.390625q0.421875 -0.21875 0.703125 -0.40625q0.28125 -0.1875 0.484375 -0.1875q0.265625 0 0.40625 0.203125l0.609375 0.78125q-0.40625 0.484375 -0.953125 0.84375q-0.546875 0.34375 -1.1875 0.578125q-0.625 0.21875 -1.296875 0.328125q-0.671875 0.125 -1.328125 0.125q-1.265625 0 -2.328125 -0.421875q-1.0625 -0.4375 -1.84375 -1.25q-0.765625 -0.828125 -1.203125 -2.03125q-0.421875 -1.21875 -0.421875 -2.796875q0 -1.265625 0.390625 -2.359375q0.390625 -1.109375 1.109375 -1.921875q0.734375 -0.8125 1.796875 -1.265625q1.0625 -0.46875 2.375 -0.46875zm0.046875 1.5625q-1.546875 0 -2.4375 0.90625q-0.890625 0.890625 -1.09375 2.46875l6.609375 0q0 -0.734375 -0.203125 -1.359375q-0.203125 -0.625 -0.609375 -1.0625q-0.390625 -0.453125 -0.96875 -0.703125q-0.5625 -0.25 -1.296875 -0.25zm7.716736 10.78125l0 -12.15625l1.28125 0q0.453125 0 0.5625 0.4375l0.171875 1.328125q0.796875 -0.875 1.765625 -1.40625q0.984375 -0.546875 2.265625 -0.546875q1.0 0 1.75 0.328125q0.765625 0.328125 1.28125 0.9375q0.515625 0.609375 0.78125 1.46875q0.265625 0.84375 0.265625 1.875l0 7.734375l-2.140625 0l0 -7.734375q0 -1.390625 -0.640625 -2.140625q-0.625 -0.765625 -1.921875 -0.765625q-0.9375 0 -1.765625 0.453125q-0.828125 0.453125 -1.515625 1.234375l0 8.953125l-2.140625 0zm17.031616 0.1875q-1.4375 0 -2.21875 -0.796875q-0.765625 -0.8125 -0.765625 -2.3125l0 -7.453125l-1.46875 0q-0.1875 0 -0.328125 -0.109375q-0.125 -0.109375 -0.125 -0.359375l0 -0.84375l1.984375 -0.25l0.5 -3.765625q0.015625 -0.171875 0.140625 -0.28125q0.140625 -0.125 0.34375 -0.125l1.078125 0l0 4.1875l3.484375 0l0 1.546875l-3.484375 0l0 7.296875q0 0.78125 0.375 1.15625q0.375 0.359375 0.96875 0.359375q0.328125 0 0.578125 -0.078125q0.25 -0.09375 0.421875 -0.203125q0.1875 -0.109375 0.3125 -0.203125q0.125 -0.09375 0.21875 -0.09375q0.171875 0 0.296875 0.203125l0.625 1.03125q-0.546875 0.515625 -1.328125 0.8125q-0.78125 0.28125 -1.609375 0.28125z" fill-rule="nonzero"></path><path fill="#cfe2f3" d="m627.5407 576.80707l0 0c0 -8.995972 7.2926636 -16.288696 16.288696 -16.288696l178.60364 0c4.3200684 0 8.463135 1.7161255 11.517883 4.770874c3.0547485 3.0546875 4.770874 7.197815 4.770874 11.517822l0 65.15485c0 8.996033 -7.2927246 16.288757 -16.288757 16.288757l-178.60364 0c-8.996033 0 -16.288696 -7.2927246 -16.288696 -16.288757z" fill-rule="nonzero"></path><path stroke="#9fc5e8" stroke-width="2.0" stroke-linejoin="round" stroke-linecap="butt" d="m627.5407 576.80707l0 0c0 -8.995972 7.2926636 -16.288696 16.288696 -16.288696l178.60364 0c4.3200684 0 8.463135 1.7161255 11.517883 4.770874c3.0547485 3.0546875 4.770874 7.197815 4.770874 11.517822l0 65.15485c0 8.996033 -7.2927246 16.288757 -16.288757 16.288757l-178.60364 0c-8.996033 0 -16.288696 -7.2927246 -16.288696 -16.288757z" fill-rule="nonzero"></path><path fill="#cc0000" d="m645.9521 596.987l0 6.4375l-2.3125 0l0 -17.203125l5.078125 0q1.625 0 2.828125 0.390625q1.21875 0.375 2.0 1.078125q0.796875 0.6875 1.1875 1.671875q0.390625 0.984375 0.390625 2.1875q0 1.203125 -0.421875 2.203125q-0.421875 1.0 -1.234375 1.71875q-0.796875 0.71875 -2.0 1.125q-1.203125 0.390625 -2.75 0.390625l-2.765625 0zm0 -1.84375l2.765625 0q1.0 0 1.75 -0.265625q0.765625 -0.265625 1.28125 -0.734375q0.515625 -0.46875 0.78125 -1.125q0.265625 -0.671875 0.265625 -1.46875q0 -1.640625 -1.015625 -2.5625q-1.015625 -0.921875 -3.0625 -0.921875l-2.765625 0l0 7.078125zm11.773499 8.28125l0 -12.15625l1.21875 0q0.359375 0 0.484375 0.140625q0.140625 0.125 0.1875 0.453125l0.140625 1.890625q0.625 -1.265625 1.53125 -1.984375q0.921875 -0.71875 2.15625 -0.71875q0.515625 0 0.921875 0.125q0.40625 0.109375 0.75 0.3125l-0.265625 1.59375q-0.09375 0.296875 -0.375 0.296875q-0.171875 0 -0.53125 -0.109375q-0.34375 -0.109375 -0.953125 -0.109375q-1.125 0 -1.875 0.65625q-0.75 0.640625 -1.25 1.875l0 7.734375l-2.140625 0zm14.593933 -12.34375q1.328125 0 2.40625 0.453125q1.078125 0.4375 1.828125 1.25q0.75 0.8125 1.140625 1.96875q0.40625 1.15625 0.40625 2.59375q0 1.4375 -0.40625 2.59375q-0.390625 1.140625 -1.140625 1.96875q-0.75 0.8125 -1.828125 1.25q-1.078125 0.4375 -2.40625 0.4375q-1.328125 0 -2.40625 -0.4375q-1.078125 -0.4375 -1.828125 -1.25q-0.75 -0.828125 -1.171875 -1.96875q-0.40625 -1.15625 -0.40625 -2.59375q0 -1.4375 0.40625 -2.59375q0.421875 -1.15625 1.171875 -1.96875q0.75 -0.8125 1.828125 -1.25q1.078125 -0.453125 2.40625 -0.453125zm0 10.84375q1.796875 0 2.6875 -1.203125q0.890625 -1.203125 0.890625 -3.375q0 -2.171875 -0.890625 -3.375q-0.890625 -1.21875 -2.6875 -1.21875q-0.90625 0 -1.578125 0.3125q-0.671875 0.3125 -1.125 0.90625q-0.453125 0.578125 -0.671875 1.4375q-0.21875 0.859375 -0.21875 1.9375q0 1.09375 0.21875 1.953125q0.21875 0.84375 0.671875 1.421875q0.453125 0.578125 1.125 0.890625q0.671875 0.3125 1.578125 0.3125zm8.422241 5.609375l0 -16.265625l1.28125 0q0.453125 0 0.5625 0.4375l0.1875 1.453125q0.78125 -0.953125 1.78125 -1.53125q1.0 -0.578125 2.3125 -0.578125q1.046875 0 1.890625 0.40625q0.859375 0.40625 1.453125 1.1875q0.59375 0.78125 0.921875 1.953125q0.328125 1.15625 0.328125 2.671875q0 1.34375 -0.359375 2.5q-0.359375 1.15625 -1.03125 2.015625q-0.671875 0.84375 -1.65625 1.328125q-0.96875 0.484375 -2.203125 0.484375q-1.125 0 -1.921875 -0.375q-0.796875 -0.375 -1.40625 -1.0625l0 5.375l-2.140625 0zm5.40625 -14.75q-1.03125 0 -1.828125 0.484375q-0.78125 0.46875 -1.4375 1.34375l0 5.890625q0.578125 0.78125 1.28125 1.109375q0.703125 0.328125 1.578125 0.328125q1.6875 0 2.59375 -1.203125q0.921875 -1.21875 0.921875 -3.46875q0 -1.1875 -0.21875 -2.03125q-0.203125 -0.859375 -0.609375 -1.40625q-0.390625 -0.546875 -0.96875 -0.796875q-0.578125 -0.25 -1.3125 -0.25zm14.810608 0.484375q-0.15625 0.265625 -0.453125 0.265625q-0.171875 0 -0.40625 -0.125q-0.234375 -0.140625 -0.5625 -0.296875q-0.328125 -0.15625 -0.78125 -0.296875q-0.453125 -0.140625 -1.078125 -0.140625q-0.546875 0 -0.984375 0.140625q-0.421875 0.140625 -0.734375 0.375q-0.296875 0.234375 -0.46875 0.5625q-0.15625 0.3125 -0.15625 0.6875q0 0.46875 0.265625 0.78125q0.28125 0.3125 0.71875 0.546875q0.453125 0.21875 1.015625 0.390625q0.5625 0.171875 1.15625 0.375q0.59375 0.1875 1.15625 0.4375q0.5625 0.234375 1.0 0.59375q0.453125 0.359375 0.71875 0.890625q0.265625 0.515625 0.265625 1.25q0 0.84375 -0.296875 1.5625q-0.296875 0.703125 -0.890625 1.234375q-0.578125 0.515625 -1.4375 0.8125q-0.84375 0.296875 -1.96875 0.296875q-1.265625 0 -2.296875 -0.40625q-1.03125 -0.421875 -1.75 -1.0625l0.5 -0.8125q0.09375 -0.15625 0.21875 -0.234375q0.140625 -0.09375 0.359375 -0.09375q0.21875 0 0.453125 0.171875q0.234375 0.15625 0.578125 0.359375q0.34375 0.203125 0.828125 0.375q0.484375 0.171875 1.21875 0.171875q0.625 0 1.09375 -0.15625q0.46875 -0.171875 0.78125 -0.4375q0.3125 -0.28125 0.453125 -0.640625q0.15625 -0.359375 0.15625 -0.765625q0 -0.515625 -0.265625 -0.84375q-0.265625 -0.328125 -0.71875 -0.5625q-0.4375 -0.234375 -1.015625 -0.40625q-0.5625 -0.171875 -1.15625 -0.359375q-0.59375 -0.203125 -1.171875 -0.4375q-0.5625 -0.25 -1.015625 -0.625q-0.4375 -0.375 -0.71875 -0.921875q-0.265625 -0.546875 -0.265625 -1.3125q0 -0.703125 0.28125 -1.34375q0.296875 -0.640625 0.84375 -1.125q0.5625 -0.484375 1.359375 -0.765625q0.8125 -0.296875 1.84375 -0.296875q1.203125 0 2.15625 0.375q0.953125 0.375 1.640625 1.03125l-0.46875 0.78125z" fill-rule="nonzero"></path><path fill="#cc0000" d="m643.18646 624.5651l9.59375 0l0 1.5625l-9.59375 0l0 -1.5625z" fill-rule="nonzero"></path><path fill="#cfe2f3" d="m627.5407 483.93835l211.18109 0l0 92.75592l-211.18109 0z" fill-rule="nonzero"></path><path stroke="#9fc5e8" stroke-width="2.0" stroke-linejoin="round" stroke-linecap="butt" d="m627.5407 483.93835l211.18109 0l0 92.75592l-211.18109 0z" fill-rule="nonzero"></path><path fill="#6aa84f" d="m647.43134 509.84067q-0.109375 0.1875 -0.234375 0.28125q-0.109375 0.09375 -0.296875 0.09375q-0.203125 0 -0.484375 -0.203125q-0.265625 -0.21875 -0.6875 -0.453125q-0.40625 -0.25 -0.984375 -0.453125q-0.578125 -0.203125 -1.40625 -0.203125q-0.78125 0 -1.390625 0.21875q-0.59375 0.203125 -1.0 0.5625q-0.390625 0.359375 -0.609375 0.84375q-0.203125 0.484375 -0.203125 1.046875q0 0.7187805 0.359375 1.2031555q0.359375 0.46875 0.9375 0.8125q0.578125 0.328125 1.3125 0.578125q0.75 0.234375 1.515625 0.5q0.78125 0.265625 1.515625 0.59375q0.734375 0.328125 1.3125 0.84375q0.59375 0.5 0.9375 1.234375q0.359375 0.734375 0.359375 1.796875q0 1.125 -0.390625 2.125q-0.375 0.984375 -1.125 1.71875q-0.734375 0.734375 -1.8125 1.15625q-1.0625 0.40625 -2.4375 0.40625q-1.65625 0 -3.03125 -0.59375q-1.375 -0.609375 -2.34375 -1.640625l0.671875 -1.109375q0.09375 -0.125 0.21875 -0.21875q0.140625 -0.09375 0.3125 -0.09375q0.25 0 0.578125 0.28125q0.328125 0.265625 0.8125 0.59375q0.484375 0.3125 1.171875 0.59375q0.6875 0.265625 1.6875 0.265625q0.828125 0 1.46875 -0.234375q0.65625 -0.234375 1.109375 -0.640625q0.453125 -0.421875 0.6875 -0.984375q0.234375 -0.578125 0.234375 -1.296875q0 -0.765625 -0.359375 -1.265625q-0.34375 -0.5 -0.921875 -0.828125q-0.578125 -0.34375 -1.3125 -0.578125q-0.734375 -0.234375 -1.515625 -0.484375q-0.765625 -0.25 -1.515625 -0.5625q-0.734375 -0.328125 -1.3125 -0.84375q-0.578125 -0.515625 -0.9375 -1.28125q-0.34375 -0.78125 -0.34375 -1.9219055q0 -0.921875 0.34375 -1.765625q0.359375 -0.859375 1.03125 -1.515625q0.671875 -0.65625 1.65625 -1.046875q1.0 -0.40625 2.28125 -0.40625q1.453125 0 2.640625 0.46875q1.1875 0.453125 2.0625 1.3125l-0.5625 1.09375zm7.266968 14.7031555q-1.4375 0 -2.21875 -0.796875q-0.765625 -0.8125 -0.765625 -2.3125l0 -7.453125l-1.46875 0q-0.1875 0 -0.328125 -0.109375q-0.125 -0.109375 -0.125 -0.359375l0 -0.84375l1.984375 -0.25l0.5 -3.7656555q0.015625 -0.171875 0.140625 -0.28125q0.140625 -0.125 0.34375 -0.125l1.078125 0l0 4.1875305l3.484375 0l0 1.546875l-3.484375 0l0 7.296875q0 0.78125 0.375 1.15625q0.375 0.359375 0.96875 0.359375q0.328125 0 0.578125 -0.078125q0.25 -0.09375 0.421875 -0.203125q0.1875 -0.109375 0.3125 -0.203125q0.125 -0.09375 0.21875 -0.09375q0.171875 0 0.296875 0.203125l0.625 1.03125q-0.546875 0.515625 -1.328125 0.8125q-0.78125 0.28125 -1.609375 0.28125zm14.202026 -0.1875l-0.953125 0q-0.3125 0 -0.515625 -0.09375q-0.1875 -0.09375 -0.25 -0.40625l-0.234375 -1.125q-0.484375 0.421875 -0.9375 0.765625q-0.453125 0.34375 -0.953125 0.578125q-0.5 0.234375 -1.078125 0.34375q-0.5625 0.125 -1.265625 0.125q-0.703125 0 -1.328125 -0.1875q-0.609375 -0.203125 -1.078125 -0.59375q-0.453125 -0.40625 -0.71875 -1.0q-0.265625 -0.609375 -0.265625 -1.4375q0 -0.71875 0.390625 -1.390625q0.390625 -0.671875 1.265625 -1.1875q0.890625 -0.515625 2.3125 -0.84375q1.4375 -0.328125 3.5 -0.375l0 -0.953125q0 -1.40625 -0.609375 -2.125q-0.59375 -0.734375 -1.78125 -0.734375q-0.78125 0 -1.328125 0.203125q-0.53125 0.1875 -0.921875 0.4375q-0.390625 0.25 -0.671875 0.453125q-0.28125 0.1875 -0.546875 0.1875q-0.21875 0 -0.390625 -0.109375q-0.15625 -0.125 -0.25 -0.28125l-0.390625 -0.6875q1.015625 -0.96875 2.171875 -1.453125q1.171875 -0.48440552 2.578125 -0.48440552q1.03125 0 1.8125 0.34378052q0.796875 0.328125 1.328125 0.9375q0.546875 0.59375 0.828125 1.453125q0.28125 0.84375 0.28125 1.859375l0 7.78125zm-5.546875 -1.3125q0.5625 0 1.03125 -0.109375q0.46875 -0.109375 0.875 -0.3125q0.421875 -0.21875 0.796875 -0.515625q0.375 -0.3125 0.734375 -0.6875l0 -2.53125q-1.46875 0.046875 -2.5 0.234375q-1.03125 0.1875 -1.6875 0.484375q-0.640625 0.296875 -0.9375 0.703125q-0.296875 0.40625 -0.296875 0.921875q0 0.46875 0.15625 0.828125q0.15625 0.34375 0.421875 0.5625q0.265625 0.21875 0.625 0.328125q0.359375 0.09375 0.78125 0.09375zm12.464966 1.5q-1.4375 0 -2.21875 -0.796875q-0.765625 -0.8125 -0.765625 -2.3125l0 -7.453125l-1.46875 0q-0.1875 0 -0.328125 -0.109375q-0.125 -0.109375 -0.125 -0.359375l0 -0.84375l1.984375 -0.25l0.5 -3.7656555q0.015625 -0.171875 0.140625 -0.28125q0.140625 -0.125 0.34375 -0.125l1.078125 0l0 4.1875305l3.484375 0l0 1.546875l-3.484375 0l0 7.296875q0 0.78125 0.375 1.15625q0.375 0.359375 0.96875 0.359375q0.328125 0 0.578125 -0.078125q0.25 -0.09375 0.421875 -0.203125q0.1875 -0.109375 0.3125 -0.203125q0.125 -0.09375 0.21875 -0.09375q0.171875 0 0.296875 0.203125l0.625 1.03125q-0.546875 0.515625 -1.328125 0.8125q-0.78125 0.28125 -1.609375 0.28125zm10.077087 -12.53125q1.09375 0 2.015625 0.375q0.921875 0.359375 1.59375 1.046875q0.671875 0.6875 1.046875 1.703125q0.390625 1.015625 0.390625 2.3125q0 0.5 -0.109375 0.671875q-0.109375 0.15625 -0.40625 0.15625l-8.09375 0q0.03125 1.15625 0.3125 2.015625q0.28125 0.84375 0.78125 1.421875q0.515625 0.5625 1.203125 0.84375q0.703125 0.28125 1.5625 0.28125q0.8125 0 1.390625 -0.1875q0.578125 -0.1875 1.0 -0.390625q0.421875 -0.21875 0.703125 -0.40625q0.28125 -0.1875 0.484375 -0.1875q0.265625 0 0.40625 0.203125l0.609375 0.78125q-0.40625 0.484375 -0.953125 0.84375q-0.546875 0.34375 -1.1875 0.578125q-0.625 0.21875 -1.296875 0.328125q-0.671875 0.125 -1.328125 0.125q-1.265625 0 -2.328125 -0.421875q-1.0625 -0.4375 -1.84375 -1.25q-0.765625 -0.828125 -1.203125 -2.03125q-0.421875 -1.21875 -0.421875 -2.796875q0 -1.265625 0.390625 -2.359375q0.390625 -1.109375 1.109375 -1.921875q0.734375 -0.8125 1.796875 -1.265625q1.0625 -0.46875 2.375 -0.46875zm0.046875 1.5625q-1.546875 0 -2.4375 0.90625q-0.890625 0.890625 -1.09375 2.46875l6.609375 0q0 -0.734375 -0.203125 -1.359375q-0.203125 -0.625 -0.609375 -1.0625q-0.390625 -0.453125 -0.96875 -0.703125q-0.5625 -0.25 -1.296875 -0.25z" fill-rule="nonzero"></path><path fill="#6aa84f" d="m638.4157 545.49695l9.59375 0l0 1.5625l-9.59375 0l0 -1.5625z" fill-rule="nonzero"></path><path fill="#000000" fill-opacity="0.0" d="m475.95538 294.58923l257.16534 130.83466" fill-rule="nonzero"></path><path stroke="#000000" stroke-width="2.0" stroke-linejoin="round" stroke-linecap="butt" d="m475.95538 294.58923l246.46997 125.39331" fill-rule="evenodd"></path><path fill="#000000" stroke="#000000" stroke-width="2.0" stroke-linecap="butt" d="m720.92737 422.92685l9.587402 1.1712341l-6.5914917 -7.0598755z" fill-rule="evenodd"></path></g></svg>

